<svg width="276" height="67" viewBox="0 0 276 67" fill="none" xmlns="http://www.w3.org/2000/svg">
<path d="M63.3979 20.7687V24.3317C64.4218 24.2498 66.019 24.1679 66.8381 24.1679H89.3218C90.5095 24.1679 91.82 24.2498 92.8439 24.3317V20.7687C91.861 20.8916 90.5914 20.9735 89.3218 20.9735H66.8381C65.978 20.9735 64.4627 20.8916 63.3979 20.7687ZM76.0527 44.8087H79.5338V22.8164H76.0527V44.8087ZM60.8997 42.802V46.4878C62.1284 46.4059 63.3979 46.365 64.5037 46.365H91.5743C92.3524 46.365 93.8677 46.365 94.9325 46.4878V42.802C93.9087 42.8839 92.8029 43.0477 91.5743 43.0477H64.5037C63.357 43.0477 62.0874 42.9658 60.8997 42.802ZM101.936 33.3416L103.533 36.536C110.126 34.4883 116.638 31.4987 121.143 28.7138C125.935 25.7241 130.235 22.284 133.757 18.6391L131.013 16.059C128.187 19.4991 124.092 23.0212 119.792 25.7241C115.246 28.55 109.021 31.4577 101.936 33.3416ZM119.136 27.4033V45.0544C119.136 46.5697 119.013 48.6174 118.891 49.3956H122.945C122.74 48.6174 122.658 46.5697 122.658 45.0544V26.3384L119.136 27.4033ZM160.131 15.9361H156.323C156.486 16.8781 156.568 18.3934 156.568 19.3353C156.486 32.2768 153.128 39.198 148.009 43.8258C146.78 44.9725 145.142 46.1192 143.832 46.8154L146.821 49.2317C154.889 43.621 159.394 35.9626 159.927 19.2534C159.967 18.2705 160.049 16.8781 160.131 15.9361ZM174.383 24.4546L172.049 23.2669C171.353 23.3898 170.575 23.4717 169.469 23.4717H149.238C147.64 23.4717 145.961 23.3898 144.528 23.2669V26.707C146.002 26.5842 147.64 26.5432 149.278 26.5432H170.861C170.861 30.9253 170.329 41 168.773 44.1534C168.322 45.1363 167.544 45.5049 166.397 45.5049C164.636 45.5049 162.507 45.3002 160.295 45.0135L160.705 48.4127C162.834 48.5765 165.21 48.6993 167.257 48.6993C169.51 48.6993 170.82 47.9622 171.639 46.2011C173.482 42.2696 174.015 30.3929 174.138 26.4204C174.178 25.888 174.26 25.1508 174.383 24.4546ZM198.956 17.3695L195.843 18.3934C196.867 20.5639 199.16 26.8708 199.857 29.2052L203.051 28.0995C202.355 25.806 199.857 19.2944 198.956 17.3695ZM217.18 19.9906L213.371 18.8848C212.593 25.0689 210.054 31.6215 206.819 35.7579C202.682 41 196.58 44.9316 190.765 46.6516L193.55 49.4775C199.365 47.4298 205.385 43.2115 209.604 37.6418C213.003 33.2187 215.173 27.4033 216.443 22.284C216.607 21.6697 216.894 20.6458 217.18 19.9906ZM187.529 19.8268L184.335 20.9735C185.277 22.7755 188.103 29.6967 188.881 32.2358L192.157 31.0482C191.174 28.3452 188.635 22.1202 187.529 19.8268Z" fill="white"/>
<path d="M45.8536 10.8958H0.627808V56.0705H45.8536V10.8958Z" stroke="white" stroke-width="0.75" stroke-miterlimit="10"/>
<path d="M0.727661 33.4825H46.2644" stroke="white" stroke-width="0.75" stroke-miterlimit="10"/>
<path d="M23.2401 55.8528V10.3674" stroke="white" stroke-width="0.75" stroke-miterlimit="10"/>
</svg>
