<svg width="122" height="116" viewBox="0 0 122 116" fill="none" xmlns="http://www.w3.org/2000/svg">
<path d="M59.0187 115.278C90.6664 115.278 116.322 89.6517 116.322 58.0397C116.322 26.4277 90.6664 0.801147 59.0187 0.801147C27.3709 0.801147 1.71533 26.4277 1.71533 58.0397C1.71533 89.6517 27.3709 115.278 59.0187 115.278Z" fill="#B6CBFF"/>
<path d="M121.583 100.148C120.076 102.476 117.799 102.803 115.25 102.803C78.8407 102.771 42.4341 102.764 6.03021 102.78C1.33687 102.78 0.288455 101.561 0.0572433 96.919C-0.103959 95.3976 0.076347 93.8595 0.585026 92.4165C1.0937 90.9735 1.91798 89.6617 2.9979 88.5768C4.59247 86.9562 5.66613 84.806 7.31518 83.2531C10.9029 79.883 11.6258 75.864 11.5554 71.111C11.3175 54.9086 11.4624 38.6995 11.4663 22.4945C11.4663 17.602 13.0809 15.9337 17.9775 15.931C46.6283 15.9151 75.2786 15.9151 103.929 15.931C108.469 15.931 110.129 17.6751 110.13 22.3167C110.13 40.0243 110.159 57.733 110.093 75.4406C110.058 77.168 110.664 78.8473 111.796 80.1538C115.109 84.2472 118.327 88.4163 121.582 92.5562L121.583 100.148ZM103.352 22.8835C102.412 22.8383 101.785 22.7825 101.158 22.7825C74.3365 22.7825 47.515 22.7658 20.6936 22.7321C18.5196 22.7255 18.0533 23.4741 18.0626 25.4704C18.1317 39.6964 18.1516 53.921 18.0479 68.1457C18.0306 70.5044 18.622 71.237 21.0736 71.2291C47.5779 71.1406 74.0827 71.1375 100.588 71.2198C102.836 71.2265 103.566 70.645 103.55 68.3209C103.449 54.0179 103.501 39.7123 103.493 25.408C103.493 24.6368 103.416 23.863 103.352 22.8835ZM49.4183 98.1348H72.1409V92.1739H49.4183V98.1348Z" fill="black"/>
<path d="M103.352 22.8836C103.409 23.8658 103.492 24.6369 103.492 25.4054C103.5 39.7097 103.449 54.0154 103.55 68.3185C103.566 70.6426 102.836 71.2239 100.588 71.2172C74.0825 71.1464 47.5777 71.1496 21.0734 71.2266C18.6218 71.2346 18.0305 70.5019 18.0477 68.1433C18.1514 53.9186 18.1315 39.6938 18.0624 25.4677C18.0531 23.4768 18.5194 22.7229 20.6934 22.7295C47.5148 22.8012 74.3363 22.8181 101.158 22.7801C101.785 22.7827 102.412 22.8385 103.352 22.8836ZM77.238 64.8767V32.0061H69.5442V64.8767H77.238ZM90.033 40.1186C88.0571 40.1186 86.1715 40.2234 84.3032 40.0893C82.4349 39.9552 81.829 40.5872 81.8582 42.4892C81.9619 49.285 81.8928 56.0833 81.9087 62.8817C81.9398 63.5181 82.0067 64.1523 82.1093 64.7811H90.033V40.1186ZM64.6529 64.8834V44.423H56.894V64.8767L64.6529 64.8834ZM44.3341 48.6265V64.8302H52.016V48.6265H44.3341ZM31.5643 64.8808H39.4588V57.2422H31.5643V64.8808Z" fill="white"/>
<path d="M49.4182 98.1349V92.174H72.1408V98.1349H49.4182Z" fill="white"/>
<path d="M77.2382 64.8767H69.5444V32.006H77.2382V64.8767Z" fill="#4F75D3"/>
<path d="M90.0383 40.117V64.7797H82.1147C82.0121 64.1509 81.9451 63.5167 81.9141 62.8803C81.8981 56.0819 81.9672 49.2834 81.8635 42.4876C81.8343 40.5856 82.4509 39.9538 84.3086 40.0879C86.1662 40.2219 88.0624 40.117 90.0383 40.117Z" fill="#4F75D3"/>
<path d="M64.6582 64.8767H56.8993V44.4229H64.6582V64.8767Z" fill="#4F75D3"/>
<path d="M44.3395 48.6252H52.0213V64.8289H44.3395V48.6252Z" fill="#4F75D3"/>
<path d="M31.5696 64.8767V57.238H39.464V64.8767H31.5696Z" fill="#4F75D3"/>
</svg>
