<svg width="115" height="116" viewBox="0 0 115 116" fill="none" xmlns="http://www.w3.org/2000/svg">
<path d="M57.3033 115.278C88.9511 115.278 114.607 89.6517 114.607 58.0397C114.607 26.4277 88.9511 0.801147 57.3033 0.801147C25.6556 0.801147 0 26.4277 0 58.0397C0 89.6517 25.6556 115.278 57.3033 115.278Z" fill="#B6CBFF"/>
<path d="M72.8019 102.368C70.3415 101.834 67.9115 101.168 65.5224 100.373C60.9162 98.6651 56.8042 95.8462 53.5522 92.1672C50.3002 88.4882 48.0091 84.0633 46.8829 79.2862C45.7566 74.5091 45.83 69.5279 47.0968 64.786C48.3635 60.0441 50.7841 55.6886 54.1432 52.1069C58.4386 47.5623 64.0581 44.4846 70.2039 43.3108C76.3496 42.1369 82.7093 42.9264 88.3803 45.5675C100.077 51.4263 105.78 60.9946 105.553 73.9996C105.311 87.7383 93.6779 100.366 79.9837 101.959C79.4066 102.059 78.8363 102.196 78.2763 102.368H72.8019ZM53.3196 72.6421C53.3478 77.0985 54.6999 81.4464 57.2047 85.1343C59.7095 88.8223 63.2541 91.6844 67.3892 93.3578C71.5243 95.0312 76.0637 95.4406 80.432 94.5342C84.8003 93.6277 88.8008 91.4462 91.9264 88.2661C95.052 85.0859 97.162 81.0504 97.989 76.6711C98.8159 72.2917 98.3226 67.7657 96.5714 63.6668C94.8202 59.5679 91.8902 56.0806 88.1526 53.647C84.415 51.2133 80.0381 49.9431 75.5768 49.9969C69.62 50.0535 63.9295 52.4708 59.7567 56.7174C55.5838 60.964 53.2703 66.692 53.3247 72.6421H53.3196Z" fill="black"/>
<path d="M64.7639 23.6425C65.3422 30.6069 63.4374 33.274 56.199 36.0286C50.8589 38.1887 45.1234 39.2018 39.3654 39.0022C33.6075 38.8025 27.9562 37.3946 22.7788 34.8698C20.8407 34.0701 19.1979 32.6907 18.0761 30.921C16.9543 29.1513 16.4085 27.0782 16.5135 24.9862C16.3813 17.4167 18.0133 14.5301 26.3104 11.5664C36.3515 7.88405 47.4217 8.17356 57.2562 12.3756C59.0172 13.1752 60.6595 14.2133 62.1366 15.4608C64.9458 17.6789 65.0883 20.8467 64.7639 23.6425ZM40.6206 28.2362C44.4852 27.5694 48.4151 27.1426 52.1921 26.145C54.5548 25.4186 56.7858 24.319 58.8006 22.8881C60.7174 21.6197 60.599 19.9741 58.725 18.6234C57.5129 17.7241 56.1957 16.9759 54.8022 16.3951C47.6853 13.6496 39.9175 13.0535 32.4642 14.681C29.0931 15.1668 25.8857 16.4458 23.1065 18.4126C20.7401 20.2553 20.7522 21.3711 23.0551 23.284C23.2959 23.4646 23.5487 23.6284 23.8119 23.7743C28.9566 26.9454 34.671 27.6843 40.6258 28.2329L40.6206 28.2362Z" fill="black"/>
<path d="M51.3977 47.7397C49.601 50.3726 47.4078 53.6619 45.1083 56.8742C44.8805 57.1365 44.6033 57.3514 44.2924 57.5067C43.9814 57.662 43.6429 57.7546 43.2962 57.7792C36.6177 58.3046 29.9128 57.1711 23.7794 54.4796C22.0439 53.6347 20.4395 52.5441 19.0157 51.2416C18.2353 50.5593 17.6165 49.7122 17.204 48.7618C16.7914 47.8114 16.5955 46.7813 16.6303 45.746C16.6681 43.5793 16.6389 41.4128 16.6389 39.001C21.8163 46.2295 29.4235 47.7636 37.2316 48.2864C41.9603 48.3787 46.6903 48.1962 51.3977 47.7397Z" fill="black"/>
<path d="M16.6386 76.4114C20.8258 82.8377 27.1323 84.5123 33.6722 85.546C36.6202 85.9071 39.5901 86.0607 42.5597 86.0055C43.0281 85.9672 43.4966 86.0797 43.8965 86.3264C44.2963 86.5732 44.6066 86.9413 44.7819 87.3768C46.0982 89.8177 47.6049 92.1592 49.1185 94.6824C48.1403 94.8538 47.1089 95.1022 46.0638 95.1862C38.1048 95.8256 30.2915 95.3903 23.0086 91.6741C21.6655 90.9839 20.4197 90.1193 19.3036 89.1029C18.4336 88.3853 17.7396 87.4784 17.2747 86.4516C16.8098 85.4247 16.5863 84.3052 16.6214 83.1788C16.7055 81.0653 16.6386 78.9312 16.6386 76.4114Z" fill="black"/>
<path d="M41.4993 67.5358V76.7921C38.8685 76.5744 36.303 76.4783 33.777 76.1252C29.3652 75.6729 25.1125 74.2321 21.3356 71.9102C18.3428 69.9355 16.2903 67.438 16.6164 63.5384C16.7657 61.742 16.6422 59.9218 16.6422 57.9248C22.6861 65.8218 31.3247 66.7508 40.0938 67.3439C40.4576 67.3679 40.8214 67.3713 41.1835 67.4056C41.2946 67.4331 41.4011 67.4769 41.4993 67.5358Z" fill="black"/>
<path d="M53.3247 72.642C53.2951 68.1942 54.5856 63.8373 57.0333 60.1217C59.481 56.4061 62.9761 53.4983 67.0772 51.7656C71.1783 50.0328 75.7015 49.5527 80.0755 50.386C84.4496 51.2194 88.4784 53.3286 91.653 56.4476C94.8277 59.5665 97.0058 63.5552 97.9125 67.9099C98.8192 72.2646 98.4137 76.7902 96.7472 80.9148C95.0807 85.0395 92.2279 88.5783 88.5492 91.0845C84.8704 93.5906 80.5306 94.9517 76.0779 94.9958C73.1113 95.0318 70.167 94.4809 67.4146 93.3748C64.6622 92.2688 62.1563 90.6296 60.0412 88.5516C57.926 86.4736 56.2436 83.998 55.0908 81.2674C53.9381 78.5368 53.3378 75.6054 53.3247 72.642ZM75.8291 69.3851C74.422 67.2305 73.1778 65.3176 71.9268 63.4097C70.5763 61.3528 70.1077 61.1968 67.5199 61.9304L71.0087 67.5392H66.6808V70.2336C66.8645 70.3315 67.0608 70.4036 67.2642 70.4478C68.4174 70.4764 69.5706 70.4925 70.7238 70.496C73.6668 70.496 74.0822 71.0479 73.4198 74.3887H66.6688V77.8067H73.7784V83.2113H77.9725V77.7124H85.0186V74.3442C83.2116 74.3442 81.5195 74.3305 79.8292 74.3442C78.7549 74.3579 77.7168 74.4625 77.8575 72.8255C77.9725 71.5107 78.0977 70.4017 79.8549 70.4771C81.5847 70.5509 83.3181 70.4924 85.0238 70.4924V67.6367L80.7044 67.4036L84.2104 61.7986C83.775 61.6054 83.3052 61.5014 82.8289 61.4931C82.3526 61.4847 81.8794 61.572 81.4375 61.7498C80.9956 61.9276 80.5939 62.1922 80.2563 62.528C79.9187 62.8638 79.6523 63.2639 79.4724 63.7046C78.356 65.658 77.1382 67.5519 75.824 69.3784L75.8291 69.3851Z" fill="white"/>
<path d="M40.6259 28.2327C34.6764 27.6842 28.9568 26.9455 23.8172 23.776C23.554 23.6301 23.3012 23.4663 23.0604 23.2858C20.7575 21.3728 20.7454 20.2569 23.1119 18.4142C25.891 16.4473 29.0984 15.1683 32.4695 14.6825C39.9228 13.055 47.6906 13.6511 54.8075 16.3967C56.201 16.9774 57.5184 17.7258 58.7305 18.6251C60.6044 19.969 60.7227 21.6212 58.8059 22.8897C56.7911 24.3205 54.5601 25.4201 52.1974 26.1466C48.4152 27.139 44.4854 27.5659 40.6259 28.2327Z" fill="white"/>
<path d="M75.8239 69.3785C77.1364 67.5513 78.3524 65.6568 79.4671 63.7029C79.6469 63.2623 79.9136 62.8621 80.2512 62.5264C80.5887 62.1906 80.9903 61.926 81.4322 61.7482C81.8741 61.5704 82.3472 61.4831 82.8236 61.4915C83.2999 61.4998 83.7697 61.6036 84.2051 61.7967L80.6992 67.4019L85.0185 67.635V70.4908C83.3127 70.4908 81.5864 70.549 79.8498 70.4753C78.0925 70.3999 77.962 71.5038 77.8522 72.8236C77.7115 74.4606 78.7498 74.3563 79.824 74.3425C81.5143 74.3237 83.2062 74.3425 85.0133 74.3425V77.7107H77.9672V83.2096H73.7732V77.8085H66.6635V74.3802H73.4145C74.0769 71.0394 73.6616 70.4943 70.7186 70.4874C69.5654 70.4874 68.4122 70.4713 67.259 70.4393C67.0556 70.3951 66.8593 70.323 66.6756 70.2251V67.5306H71.0034L67.5147 61.9219C70.1025 61.1882 70.571 61.346 71.9215 63.4012C73.1725 65.3107 74.4167 67.2238 75.8239 69.3785Z" fill="black"/>
</svg>
