<svg width="135" height="125" viewBox="0 0 135 125" fill="none" xmlns="http://www.w3.org/2000/svg">
<path d="M67.1573 123.278C98.8051 123.278 124.461 97.6517 124.461 66.0397C124.461 34.4277 98.8051 8.80115 67.1573 8.80115C35.5096 8.80115 9.854 34.4277 9.854 66.0397C9.854 97.6517 35.5096 123.278 67.1573 123.278Z" fill="#B6CBFF"/>
<path d="M129.579 73.4555C130.307 73.1533 131.017 72.8089 131.705 72.4242C132.694 71.8574 133.513 71.0357 134.075 70.0451C134.638 69.0544 134.924 67.9312 134.904 66.7924C134.918 52.8115 134.918 38.8266 134.904 24.8377C134.907 23.8687 134.711 22.9092 134.328 22.0188C133.945 21.1284 133.384 20.326 132.678 19.6612C127.215 14.2286 121.739 8.80521 116.334 3.3115C115.602 2.54013 114.717 1.92938 113.736 1.51805C112.755 1.10673 111.699 0.903782 110.636 0.922291C101.932 0.89309 93.2288 0.89309 84.526 0.922291C83.6116 0.877665 82.6979 1.02535 81.8442 1.35571C80.9905 1.68606 80.2158 2.19183 79.5701 2.84017C78.9244 3.48851 78.4221 4.26507 78.0958 5.11953C77.7696 5.97399 77.6266 6.88722 77.6761 7.80038C77.6663 27.356 77.6663 46.9161 77.6761 66.4805C77.5974 68.0272 78.0721 69.5513 79.0152 70.7805C79.9582 72.0097 81.3082 72.8637 82.8238 73.19C82.99 73.2589 83.1472 73.3482 83.2916 73.4555H129.579ZM131.273 25.7509C131.307 26.2061 131.337 26.4371 131.337 26.6694C131.337 39.9 131.337 53.1288 131.337 66.3558C131.337 68.7449 130.172 69.8187 127.684 69.82C113.446 69.8271 99.2076 69.8271 84.9699 69.82C82.283 69.82 81.2585 68.7581 81.2585 65.992C81.2585 46.7621 81.2585 27.5317 81.2585 8.30087C81.2585 5.50292 82.3016 4.47956 85.1279 4.47824C92.9333 4.47293 100.738 4.47293 108.543 4.47824H110.117V6.40811C110.117 11.5103 110.1 16.6137 110.125 21.7158C110.058 22.2611 110.116 22.8145 110.295 23.334C110.475 23.8534 110.77 24.3252 111.159 24.7136C111.547 25.102 112.02 25.3969 112.54 25.5757C113.06 25.7545 113.614 25.8126 114.16 25.7455C117.944 25.7575 121.734 25.7455 125.513 25.7455L131.273 25.7509ZM113.334 6.14401L129.703 22.4991C125.076 22.4991 120.114 22.5216 115.152 22.4845C113.776 22.4739 113.326 21.5554 113.33 20.2865C113.345 16.4107 113.33 12.535 113.33 8.66057L113.334 6.14401Z" fill="black"/>
<path d="M131.279 25.7507H125.514C121.73 25.7507 117.94 25.7587 114.161 25.7507C113.615 25.8177 113.061 25.7597 112.541 25.5809C112.021 25.4021 111.549 25.1072 111.16 24.7188C110.771 24.3303 110.476 23.8584 110.297 23.339C110.118 22.8195 110.06 22.2662 110.127 21.721C110.101 16.6188 110.119 11.5154 110.119 6.41327V4.4834H108.544C100.74 4.4834 92.9356 4.4834 85.1293 4.4834C82.3029 4.4834 81.2598 5.50808 81.2598 8.30604C81.2598 27.536 81.2598 46.7664 81.2598 65.9972C81.2598 68.758 82.2843 69.8239 84.9712 69.8252C99.2088 69.8331 113.447 69.8331 127.686 69.8252C130.173 69.8252 131.336 68.7433 131.338 66.3608C131.354 53.1302 131.354 39.9016 131.338 26.6746C131.342 26.437 131.307 26.206 131.279 25.7507Z" fill="white"/>
<path d="M113.341 6.14392V8.66583C113.341 12.5402 113.352 16.4158 113.341 20.2916C113.341 21.5565 113.786 22.479 115.163 22.4896C120.125 22.5267 125.086 22.5042 129.713 22.5042L113.341 6.14392Z" fill="#4F75D3"/>
<path d="M74.6212 124.039H15.0363C14.7889 123.882 14.5205 123.76 14.2391 123.678C10.3964 123.232 6.84629 121.408 4.24855 118.545C1.65082 115.681 0.182072 111.973 0.115183 108.11C-0.0921107 96.9194 0.044747 85.7222 0.0394318 74.5291C0.034349 72.182 0.529429 69.8605 1.49168 67.7192C2.45392 65.5779 3.86132 63.6656 5.62042 62.1095C9.68125 58.2603 13.7089 54.3767 17.763 50.5195C23.445 45.1121 29.0352 39.6011 34.8554 34.345C40.2969 29.434 49.8603 29.5667 55.2898 34.4352C58.5932 37.3964 61.8142 40.4533 65.0259 43.5154C71.2328 49.4338 77.3838 55.4159 83.6053 61.3131C87.2688 64.78 89.9091 68.7461 89.9291 73.9544C89.9743 85.6347 90.0991 97.3149 89.828 108.995C89.7676 111.541 89.0264 114.025 87.681 116.189C86.3356 118.352 84.4351 120.117 82.1768 121.299C79.7456 122.437 77.2169 123.354 74.6212 124.039ZM45.0673 56.1526C36.7862 56.1526 28.5051 56.1725 20.2187 56.1353C18.7318 56.1287 17.9517 56.5335 17.9597 58.1927C18.0089 64.3965 17.9491 70.6003 18.0248 76.8028C18.0512 77.1651 18.1552 77.5174 18.33 77.836C18.5047 78.1546 18.7459 78.4318 19.0373 78.649C27.3043 83.5158 35.6062 88.3237 43.9432 93.0728C44.297 93.2232 44.6792 93.2954 45.0636 93.2844C45.448 93.2734 45.8255 93.1795 46.1702 93.0091C54.2759 88.406 62.3152 83.7074 70.4023 79.0844C70.9238 78.8586 71.3621 78.4765 71.6566 77.9909C71.951 77.5053 72.0871 76.9403 72.046 76.3741C71.9756 70.4742 72.0208 64.5744 72.0141 58.6745C72.0141 56.3358 71.8374 56.1526 69.5333 56.1526C61.385 56.1526 53.2297 56.1526 45.0673 56.1526ZM81.8154 115.541C73.723 107.312 65.7807 99.2687 57.8796 91.1815C57.0332 90.3147 56.3741 90.7235 55.6406 91.1495C52.5551 92.9374 49.4284 94.6643 46.424 96.5822C45.9975 96.8929 45.4811 97.0558 44.9534 97.0462C44.4257 97.0367 43.9155 96.855 43.5007 96.5291C40.4697 94.7372 37.3882 93.0276 34.393 91.1787C34.2026 91.0157 33.9797 90.895 33.7391 90.8245C33.4984 90.754 33.2455 90.7354 32.9972 90.7699C32.7488 90.8044 32.5105 90.8912 32.2983 91.0246C32.086 91.158 31.9046 91.335 31.766 91.5437C25.607 97.8551 19.3882 104.105 13.1986 110.392C11.5469 112.068 9.93242 113.781 8.22491 115.557C9.33235 116.752 10.6896 117.689 12.2003 118.3C13.711 118.912 15.3381 119.183 16.9658 119.096C35.5318 119.083 54.097 119.079 72.6613 119.085C73.5129 119.111 74.3651 119.073 75.2112 118.974C77.7499 118.646 80.0907 117.431 81.8193 115.545L81.8154 115.541ZM59.6044 88.9065L84.3096 112.323C84.7673 110.659 85.0689 108.956 85.2105 107.236C85.3088 96.8981 85.2596 86.5584 85.253 76.2187C85.253 75.6426 85.1879 75.0667 85.1307 74.1257L59.6044 88.9065ZM5.7772 112.34L30.493 88.9648L4.94272 74.1548C4.8632 74.4879 4.80508 74.8257 4.76867 75.1662C4.76867 86.1098 4.71947 97.0547 4.81515 107.997C4.96493 109.479 5.28917 110.938 5.78117 112.344L5.7772 112.34ZM67.6569 52.9139C67.4696 52.6185 67.2633 52.3357 67.0391 52.0672C62.5783 47.7694 58.0842 43.5047 53.6527 39.1764C52.5306 38.0233 51.188 37.1071 49.7047 36.4821C48.2214 35.8571 46.6275 35.5361 45.0176 35.5381C43.4077 35.5401 41.8146 35.8649 40.3328 36.4936C38.8511 37.1222 37.5108 38.0418 36.3915 39.1976C32.9366 42.8543 29.1482 46.2019 25.4754 49.6529C24.4469 50.6205 23.3054 51.4658 22.2145 52.3684L22.6876 52.9139H67.6569ZM75.1182 76.2931C77.8795 74.6857 80.3882 73.2708 82.8505 71.7802C84.764 70.6201 84.9593 70.2831 83.4791 68.535C81.139 65.7755 78.5106 63.2603 75.9912 60.6535C75.7209 60.4531 75.4279 60.285 75.1182 60.153V76.2931ZM14.8929 60.3999L14.445 60.1054C11.6319 63.7263 7.17114 65.9042 5.4716 70.8259L14.8929 76.2572V60.3999Z" fill="black"/>
<path d="M45.0671 56.1528C53.2269 56.1528 61.3862 56.1528 69.545 56.1528C71.8492 56.1528 72.0233 56.3333 72.0259 58.6747C72.0326 64.5746 71.9874 70.4744 72.0578 76.3742C72.0989 76.9405 71.9628 77.5055 71.6683 77.9911C71.3738 78.4766 70.9355 78.8587 70.4141 79.0846C62.327 83.7076 54.2824 88.4062 46.182 93.0093C45.8374 93.1796 45.4599 93.2735 45.0755 93.2845C44.6911 93.2955 44.3088 93.2233 43.9549 93.0729C35.6171 88.3283 27.3152 83.5204 19.0492 78.6492C18.7577 78.432 18.5164 78.1547 18.3417 77.8362C18.167 77.5176 18.063 77.1652 18.0366 76.8029C17.9609 70.6005 18.0206 64.3966 17.9715 58.1928C17.9582 56.5403 18.7382 56.1288 20.2305 56.1355C28.5089 56.1766 36.79 56.1528 45.0671 56.1528ZM29.0896 70.0895H60.9278V67.2464H29.0896V70.0895ZM29.0604 77.8383H48.1074V75.0377H29.0644L29.0604 77.8383Z" fill="white"/>
<path d="M81.8191 115.545C80.0917 117.43 77.753 118.644 75.2163 118.973C74.3702 119.072 73.5179 119.11 72.6663 119.084C54.1012 119.089 35.536 119.093 16.9709 119.095C15.3432 119.182 13.7161 118.911 12.2054 118.299C10.6947 117.687 9.33743 116.751 8.22998 115.556C9.93749 113.78 11.552 112.067 13.2037 110.39C19.3932 104.109 25.6121 97.8592 31.7711 91.5426C31.9097 91.3338 32.0911 91.1569 32.3034 91.0235C32.5156 90.89 32.7538 90.8033 33.0022 90.7687C33.2506 90.7342 33.5035 90.7529 33.7442 90.8234C33.9848 90.8938 34.2077 91.0145 34.3981 91.1775C37.3932 93.0265 40.4747 94.736 43.5057 96.5279C43.9206 96.8538 44.4307 97.0355 44.9585 97.0451C45.4862 97.0547 46.0027 96.8917 46.4291 96.581C49.4335 94.6631 52.5602 92.9362 55.6457 91.1484C56.3792 90.7223 57.0382 90.3136 57.8847 91.1803C65.7844 99.2729 73.7267 107.32 81.8191 115.545Z" fill="white"/>
<path d="M59.6084 88.9105L85.1347 74.1296C85.1918 75.0707 85.2569 75.6468 85.2569 76.2228C85.2635 86.5625 85.3127 96.9022 85.2144 107.241C85.0729 108.96 84.7713 110.663 84.3135 112.327L59.6084 88.9105Z" fill="white"/>
<path d="M5.78112 112.344C5.29214 110.939 4.97063 109.481 4.82312 108.001C4.72744 97.0589 4.77125 86.1139 4.77656 75.1703C4.81297 74.8298 4.87109 74.4919 4.95061 74.1588L30.5009 88.969L5.78112 112.344Z" fill="white"/>
<path d="M67.6569 52.918H22.6915L22.2185 52.3724C23.3095 51.4699 24.4509 50.6243 25.4794 49.6567C29.1522 46.2058 32.9392 42.8584 36.3954 39.2016C37.5147 38.0458 38.855 37.1263 40.3368 36.4976C41.8185 35.869 43.4117 35.544 45.0216 35.542C46.6314 35.54 48.2253 35.8611 49.7086 36.4861C51.1919 37.1111 52.5346 38.0273 53.6567 39.1804C58.0882 43.5088 62.5822 47.7733 67.043 52.0711C67.2658 52.3397 67.4709 52.6227 67.6569 52.918Z" fill="white"/>
<path d="M75.1221 76.2971V60.1558C75.4317 60.2878 75.7247 60.4557 75.9951 60.6561C78.5198 63.2629 81.1429 65.7781 83.4829 68.5376C84.9632 70.2857 84.7678 70.6229 82.8543 71.7829C80.3921 73.2748 77.8886 74.6897 75.1221 76.2971Z" fill="white"/>
<path d="M14.8929 60.4V76.2573L5.47168 70.826C7.17122 65.9043 11.632 63.7264 14.4451 60.1055L14.8929 60.4Z" fill="white"/>
<path d="M29.0936 70.0894V67.2463H60.9318V70.0894H29.0936Z" fill="black"/>
<path d="M29.0643 77.8421V75.0415H48.1114V77.8421H29.0643Z" fill="black"/>
</svg>
