<svg width="410" height="368" viewBox="0 0 410 368" fill="none" xmlns="http://www.w3.org/2000/svg">
<path d="M182.512 5.21739C159.038 10.8427 136.903 21.0311 117.371 35.2011C97.8394 49.3711 81.293 67.2451 68.6766 87.8026C56.0603 108.36 47.6211 131.199 43.841 155.014C40.061 178.829 41.0141 203.155 46.6458 226.602C48.0871 232.601 49.8039 238.457 51.7962 244.169L0.504395 357.11L135.459 343.892C161.561 358.519 190.843 366.559 220.762 367.313C250.682 368.067 280.333 361.513 307.14 348.219C333.947 334.925 357.099 315.294 374.584 291.032C392.069 266.769 403.359 238.609 407.473 208.998C411.587 179.387 408.4 149.22 398.189 121.119C387.978 93.0171 371.053 67.831 348.883 47.7484C326.712 27.6659 299.969 13.2944 270.974 5.88233C241.98 -1.52968 211.612 -1.75793 182.509 5.21739H182.512Z" fill="#3759C1"/>
</svg>
