<svg width="659" height="105" viewBox="0 0 659 105" fill="none" xmlns="http://www.w3.org/2000/svg">
<path d="M86.2816 33.5042V34.0042H86.878L86.7739 33.417L86.2816 33.5042ZM73.952 33.5042L73.4623 33.6049L73.5444 34.0042H73.952V33.5042ZM70.1239 24.1576L69.7079 24.435L69.7103 24.4385L70.1239 24.1576ZM63.5614 17.3963L63.2673 17.8007L63.2733 17.8049L63.5614 17.3963ZM55.06 13.2201L54.9172 13.6993L55.06 13.2201ZM28.5614 16.5014L28.2972 16.0769L28.2959 16.0777L28.5614 16.5014ZM16.6793 30.2727L16.2296 30.054L16.2287 30.056L16.6793 30.2727ZM16.6793 74.9176L16.2287 75.1343L16.2297 75.1362L16.6793 74.9176ZM28.5614 88.6889L28.2959 89.1126L28.2972 89.1133L28.5614 88.6889ZM55.06 91.9701L54.9172 91.4909L55.06 91.9701ZM63.5614 87.8437L63.852 88.2506L63.853 88.2499L63.5614 87.8437ZM70.1239 81.0326L69.7087 80.7541L69.7079 80.7553L70.1239 81.0326ZM73.952 71.686V71.186H73.5451L73.4625 71.5844L73.952 71.686ZM86.2816 71.686L86.7738 71.7738L86.8786 71.186H86.2816V71.686ZM81.2105 85.6562L80.7812 85.4L81.2105 85.6562ZM72.0628 96.1463L72.3708 96.5402L72.373 96.5384L72.0628 96.1463ZM59.783 102.659L59.627 102.184L59.6259 102.184L59.783 102.659ZM22.148 98.5326L21.8823 98.9561L22.148 98.5326ZM6.18924 80.436L6.63721 80.2139L6.18924 80.436ZM6.18924 24.7542L5.74127 24.5321L6.18924 24.7542ZM59.783 2.5312L59.6259 3.00589L59.627 3.00623L59.783 2.5312ZM72.0628 9.0937L71.7526 9.48587L71.7549 9.4876L72.0628 9.0937ZM81.2105 19.534L80.7812 19.7903L80.7821 19.7918L81.2105 19.534ZM86.2816 33.0042H73.952V34.0042H86.2816V33.0042ZM74.4418 33.4035C73.7009 29.8001 72.4015 26.6218 70.5376 23.8767L69.7103 24.4385C71.4921 27.0627 72.7448 30.1155 73.4623 33.6049L74.4418 33.4035ZM70.5399 23.8803C68.7167 21.1454 66.4861 18.8468 63.8495 16.9876L63.2733 17.8049C65.8071 19.5916 67.9516 21.8005 69.7079 24.435L70.5399 23.8803ZM63.8555 16.9919C61.2562 15.1015 58.3709 13.6846 55.2027 12.7409L54.9172 13.6993C57.9801 14.6117 60.7625 15.9789 63.2673 17.8006L63.8555 16.9919ZM55.2027 12.7409C52.039 11.7986 48.7427 11.3281 45.3157 11.3281V12.3281C48.6499 12.3281 51.8499 12.7856 54.9172 13.6993L55.2027 12.7409ZM45.3157 11.3281C39.062 11.3281 33.3849 12.9097 28.2972 16.0769L28.8256 16.9258C33.7474 13.862 39.2398 12.3281 45.3157 12.3281V11.3281ZM28.2959 16.0777C23.2336 19.25 19.2142 23.9173 16.2297 30.054L17.1289 30.4914C20.044 24.4974 23.946 19.9838 28.8269 16.925L28.2959 16.0777ZM16.2287 30.056C13.2711 36.2065 11.8043 43.7261 11.8043 52.5951H12.8043C12.8043 43.8315 14.2542 36.4695 17.1299 30.4894L16.2287 30.056ZM11.8043 52.5951C11.8043 61.4641 13.2711 68.9837 16.2287 75.1342L17.1299 74.7009C14.2542 68.7207 12.8043 61.3587 12.8043 52.5951H11.8043ZM16.2297 75.1362C19.2142 81.2729 23.2336 85.9402 28.2959 89.1125L28.8269 88.2652C23.946 85.2065 20.044 80.6929 17.1289 74.6989L16.2297 75.1362ZM28.2972 89.1133C33.3849 92.2805 39.062 93.8622 45.3157 93.8622V92.8622C39.2398 92.8622 33.7474 91.3282 28.8256 88.2644L28.2972 89.1133ZM45.3157 93.8622C48.7427 93.8622 52.039 93.3917 55.2027 92.4493L54.9172 91.4909C51.8499 92.4046 48.6499 92.8622 45.3157 92.8622V93.8622ZM55.2027 92.4493C58.3692 91.5061 61.2533 90.1068 63.852 88.2506L63.2708 87.4368C60.7653 89.2265 57.9818 90.5781 54.9172 91.4909L55.2027 92.4493ZM63.853 88.2499C66.4878 86.3582 68.7172 84.044 70.5399 81.31L69.7079 80.7553C67.951 83.3906 65.8054 85.6171 63.2698 87.4375L63.853 88.2499ZM70.5391 81.3111C72.4014 78.5348 73.7006 75.358 74.4416 71.7876L73.4625 71.5844C72.7451 75.0406 71.4923 78.0949 69.7087 80.7541L70.5391 81.3111ZM73.952 72.186H86.2816V71.186H73.952V72.186ZM85.7893 71.5982C84.8708 76.7486 83.1998 81.3472 80.7812 85.4L81.6399 85.9124C84.1266 81.7455 85.8363 77.0307 86.7738 71.7738L85.7893 71.5982ZM80.7812 85.4C78.3587 89.4592 75.3494 92.9094 71.7527 95.7541L72.373 96.5384C76.0679 93.6161 79.1571 90.0729 81.6399 85.9124L80.7812 85.4ZM71.7549 95.7523C68.1561 98.5659 64.1145 100.71 59.627 102.184L59.939 103.134C64.5329 101.625 68.6779 99.4273 72.3708 96.5402L71.7549 95.7523ZM59.6259 102.184C55.173 103.658 50.404 104.396 45.3157 104.396V105.396C50.502 105.396 55.3778 104.643 59.9401 103.134L59.6259 102.184ZM45.3157 104.396C36.7174 104.396 29.0886 102.297 22.4138 98.1091L21.8823 98.9561C28.7303 103.253 36.5465 105.396 45.3157 105.396V104.396ZM22.4138 98.1091C15.7378 93.9203 10.478 87.9613 6.63721 80.2139L5.74127 80.6581C9.65612 88.5547 15.0355 94.6601 21.8823 98.9561L22.4138 98.1091ZM6.63721 80.2139C2.80056 72.4751 0.872476 63.2741 0.872476 52.5951H-0.127524C-0.127524 63.3934 1.82223 72.7531 5.74127 80.6581L6.63721 80.2139ZM0.872476 52.5951C0.872476 41.9161 2.80056 32.7152 6.63721 24.9763L5.74127 24.5321C1.82223 32.4372 -0.127524 41.7968 -0.127524 52.5951H0.872476ZM6.63721 24.9763C10.478 17.229 15.7378 11.27 22.4138 7.08115L21.8823 6.23409C15.0355 10.5301 9.65612 16.6355 5.74127 24.5321L6.63721 24.9763ZM22.4138 7.08115C29.0886 2.89306 36.7174 0.79398 45.3157 0.79398V-0.20602C36.5465 -0.20602 28.7303 1.93732 21.8823 6.23409L22.4138 7.08115ZM45.3157 0.79398C50.404 0.79398 55.173 1.53249 59.6259 3.00589L59.9401 2.05651C55.3778 0.546944 50.502 -0.20602 45.3157 -0.20602V0.79398ZM59.627 3.00623C64.1134 4.47989 68.1542 6.63984 71.7527 9.48587L72.373 8.70153C68.6797 5.78051 64.534 3.56546 59.939 2.05617L59.627 3.00623ZM71.7549 9.4876C75.3504 12.2987 78.3591 15.7316 80.7812 19.7903L81.6399 19.2778C79.1567 15.1168 76.0669 11.5895 72.3708 8.69979L71.7549 9.4876ZM80.7821 19.7918C83.1997 23.8102 84.8706 28.4079 85.7892 33.5915L86.7739 33.417C85.8364 28.127 84.1267 23.4112 81.639 19.2763L80.7821 19.7918ZM186.298 80.436L185.85 80.2139L186.298 80.436ZM170.339 98.5326L170.604 98.9561L170.339 98.5326ZM124.004 98.5326L123.738 98.9561L124.004 98.5326ZM108.045 80.436L108.493 80.2139L108.045 80.436ZM108.045 24.7542L107.597 24.5321L108.045 24.7542ZM170.339 6.65762L170.604 6.23409L170.339 6.65762ZM186.298 24.7542L185.85 24.9763L186.298 24.7542ZM175.758 30.2727L175.307 30.4894L175.308 30.4914L175.758 30.2727ZM163.876 16.5014L163.61 16.9251L163.611 16.9258L163.876 16.5014ZM130.417 16.5014L130.153 16.0769L130.151 16.0777L130.417 16.5014ZM118.535 30.2727L118.085 30.054L118.084 30.056L118.535 30.2727ZM118.535 74.9176L118.084 75.1343L118.085 75.1362L118.535 74.9176ZM130.417 88.6889L130.151 89.1126L130.153 89.1133L130.417 88.6889ZM163.876 88.6889L163.611 88.2644L163.61 88.2652L163.876 88.6889ZM175.758 74.9176L175.308 74.6989L175.307 74.7009L175.758 74.9176ZM191.614 52.5951C191.614 63.2741 189.686 72.4751 185.85 80.2139L186.746 80.6581C190.665 72.7531 192.614 63.3934 192.614 52.5951H191.614ZM185.85 80.2139C182.009 87.9613 176.749 93.9203 170.073 98.1091L170.604 98.9561C177.451 94.6601 182.831 88.5547 186.746 80.6581L185.85 80.2139ZM170.073 98.1091C163.398 102.297 155.769 104.396 147.171 104.396V105.396C155.94 105.396 163.757 103.253 170.604 98.9561L170.073 98.1091ZM147.171 104.396C138.573 104.396 130.944 102.297 124.269 98.1091L123.738 98.9561C130.586 103.253 138.402 105.396 147.171 105.396V104.396ZM124.269 98.1091C117.593 93.9203 112.334 87.9613 108.493 80.2139L107.597 80.6581C111.512 88.5547 116.891 94.6601 123.738 98.9561L124.269 98.1091ZM108.493 80.2139C104.656 72.4751 102.728 63.2741 102.728 52.5951H101.728C101.728 63.3934 103.678 72.7531 107.597 80.6581L108.493 80.2139ZM102.728 52.5951C102.728 41.9161 104.656 32.7152 108.493 24.9763L107.597 24.5321C103.678 32.4372 101.728 41.7968 101.728 52.5951H102.728ZM108.493 24.9763C112.334 17.229 117.593 11.27 124.269 7.08115L123.738 6.23409C116.891 10.5301 111.512 16.6355 107.597 24.5321L108.493 24.9763ZM124.269 7.08115C130.944 2.89306 138.573 0.79398 147.171 0.79398V-0.20602C138.402 -0.20602 130.586 1.93732 123.738 6.23409L124.269 7.08115ZM147.171 0.79398C155.769 0.79398 163.398 2.89306 170.073 7.08115L170.604 6.23409C163.757 1.93732 155.94 -0.20602 147.171 -0.20602V0.79398ZM170.073 7.08115C176.749 11.27 182.009 17.229 185.85 24.9763L186.746 24.5321C182.831 16.6355 177.451 10.5301 170.604 6.23409L170.073 7.08115ZM185.85 24.9763C189.686 32.7152 191.614 41.9161 191.614 52.5951H192.614C192.614 41.7968 190.665 32.4372 186.746 24.5321L185.85 24.9763ZM180.682 52.5951C180.682 43.7254 179.199 36.2051 176.207 30.054L175.308 30.4914C178.216 36.471 179.682 43.8322 179.682 52.5951H180.682ZM176.208 30.056C173.257 23.9175 169.236 19.2494 164.14 16.0769L163.611 16.9258C168.525 19.9844 172.426 24.4972 175.307 30.4894L176.208 30.056ZM164.141 16.0777C159.086 12.9097 153.425 11.3281 147.171 11.3281V12.3281C153.247 12.3281 158.722 13.862 163.61 16.925L164.141 16.0777ZM147.171 11.3281C140.917 11.3281 135.24 12.9097 130.153 16.0769L130.681 16.9258C135.603 13.862 141.095 12.3281 147.171 12.3281V11.3281ZM130.151 16.0777C125.089 19.25 121.07 23.9173 118.085 30.054L118.984 30.4914C121.9 24.4974 125.801 19.9838 130.682 16.925L130.151 16.0777ZM118.084 30.056C115.127 36.2065 113.66 43.7261 113.66 52.5951H114.66C114.66 43.8315 116.11 36.4695 118.985 30.4894L118.084 30.056ZM113.66 52.5951C113.66 61.4641 115.127 68.9837 118.084 75.1342L118.985 74.7009C116.11 68.7207 114.66 61.3587 114.66 52.5951H113.66ZM118.085 75.1362C121.07 81.2729 125.089 85.9402 130.151 89.1125L130.682 88.2652C125.801 85.2065 121.9 80.6929 118.984 74.6989L118.085 75.1362ZM130.153 89.1133C135.24 92.2805 140.917 93.8622 147.171 93.8622V92.8622C141.095 92.8622 135.603 91.3282 130.681 88.2644L130.153 89.1133ZM147.171 93.8622C153.425 93.8622 159.086 92.2805 164.141 89.1125L163.61 88.2652C158.722 91.3283 153.247 92.8622 147.171 92.8622V93.8622ZM164.14 89.1133C169.236 85.9408 173.257 81.2727 176.208 75.1342L175.307 74.7009C172.426 80.6931 168.525 85.2059 163.611 88.2644L164.14 89.1133ZM176.207 75.1362C179.199 68.9852 180.682 61.4648 180.682 52.5951H179.682C179.682 61.358 178.216 68.7193 175.308 74.6989L176.207 75.1362ZM293.584 1.68603H294.084V1.18603H293.584V1.68603ZM293.584 103.504V104.004H294.084V103.504H293.584ZM281.653 103.504L281.242 103.789L281.391 104.004H281.653V103.504ZM226.17 23.561L226.58 23.2759L226.431 23.061H226.17V23.561ZM225.175 23.561V23.061H224.675V23.561H225.175ZM225.175 103.504V104.004H225.675V103.504H225.175ZM212.846 103.504H212.346V104.004H212.846V103.504ZM212.846 1.68603V1.18603H212.346V1.68603H212.846ZM224.778 1.68603L225.188 1.40073L225.039 1.18603H224.778V1.68603ZM280.459 81.8281L280.049 82.1134L280.198 82.3281H280.459V81.8281ZM281.454 81.8281V82.3281H281.954V81.8281H281.454ZM281.454 1.68603V1.18603H280.954V1.68603H281.454ZM293.084 1.68603V103.504H294.084V1.68603H293.084ZM293.584 103.004H281.653V104.004H293.584V103.004ZM282.063 103.219L226.58 23.2759L225.759 23.8461L281.242 103.789L282.063 103.219ZM226.17 23.061H225.175V24.061H226.17V23.061ZM224.675 23.561V103.504H225.675V23.561H224.675ZM225.175 103.004H212.846V104.004H225.175V103.004ZM213.346 103.504V1.68603H212.346V103.504H213.346ZM212.846 2.18603H224.778V1.18603H212.846V2.18603ZM224.367 1.97132L280.049 82.1134L280.87 81.5428L225.188 1.40073L224.367 1.97132ZM280.459 82.3281H281.454V81.3281H280.459V82.3281ZM281.954 81.8281V1.68603H280.954V81.8281H281.954ZM281.454 2.18603H293.584V1.18603H281.454V2.18603ZM312.688 12.6235H312.188V13.1235H312.688V12.6235ZM312.688 1.68603V1.18603H312.188V1.68603H312.688ZM389.051 1.68603H389.551V1.18603H389.051V1.68603ZM389.051 12.6235V13.1235H389.551V12.6235H389.051ZM357.034 12.6235V12.1235H356.534V12.6235H357.034ZM357.034 103.504V104.004H357.534V103.504H357.034ZM344.705 103.504H344.205V104.004H344.705V103.504ZM344.705 12.6235H345.205V12.1235H344.705V12.6235ZM313.188 12.6235V1.68603H312.188V12.6235H313.188ZM312.688 2.18603H389.051V1.18603H312.688V2.18603ZM388.551 1.68603V12.6235H389.551V1.68603H388.551ZM389.051 12.1235H357.034V13.1235H389.051V12.1235ZM356.534 12.6235V103.504H357.534V12.6235H356.534ZM357.034 103.004H344.705V104.004H357.034V103.004ZM345.205 103.504V12.6235H344.205V103.504H345.205ZM344.705 12.1235H312.688V13.1235H344.705V12.1235ZM400.362 103.504V104.004H400.715L400.833 103.671L400.362 103.504ZM387.436 103.504L386.966 103.332L386.719 104.004H387.436V103.504ZM424.822 1.68603V1.18603H424.473L424.353 1.51368L424.822 1.68603ZM437.549 1.68603L438.019 1.51368L437.898 1.18603H437.549V1.68603ZM474.936 103.504V104.004H475.652L475.405 103.332L474.936 103.504ZM462.01 103.504L461.538 103.671L461.656 104.004H462.01V103.504ZM431.583 17.794L432.055 17.6267L431.936 17.294H431.583V17.794ZM430.788 17.794V17.294H430.435L430.317 17.6267L430.788 17.794ZM405.135 63.7315V63.2315H404.635V63.7315H405.135ZM457.237 63.7315H457.737V63.2315H457.237V63.7315ZM457.237 74.669V75.169H457.737V74.669H457.237ZM405.135 74.669H404.635V75.169H405.135V74.669ZM400.362 103.004H387.436V104.004H400.362V103.004ZM387.905 103.677L425.291 1.85837L424.353 1.51368L386.966 103.332L387.905 103.677ZM424.822 2.18603H437.549V1.18603H424.822V2.18603ZM437.08 1.85837L474.466 103.677L475.405 103.332L438.019 1.51368L437.08 1.85837ZM474.936 103.004H462.01V104.004H474.936V103.004ZM462.481 103.337L432.055 17.6267L431.112 17.9612L461.538 103.671L462.481 103.337ZM431.583 17.294H430.788V18.294H431.583V17.294ZM430.317 17.6267L399.891 103.337L400.833 103.671L431.259 17.9612L430.317 17.6267ZM405.135 64.2315H457.237V63.2315H405.135V64.2315ZM456.737 63.7315V74.669H457.737V63.7315H456.737ZM457.237 74.169H405.135V75.169H457.237V74.169ZM405.635 74.669V63.7315H404.635V74.669H405.635ZM567.942 33.5042V34.0042H568.538L568.434 33.417L567.942 33.5042ZM555.612 33.5042L555.122 33.6049L555.205 34.0042H555.612V33.5042ZM551.784 24.1576L551.368 24.435L551.37 24.4385L551.784 24.1576ZM545.222 17.3963L544.927 17.8007L544.933 17.8049L545.222 17.3963ZM536.72 13.2201L536.577 13.6993L536.72 13.2201ZM510.222 16.5014L509.957 16.0769L509.956 16.0777L510.222 16.5014ZM498.339 30.2727L497.89 30.054L497.889 30.056L498.339 30.2727ZM498.339 74.9176L497.889 75.1343L497.89 75.1362L498.339 74.9176ZM510.222 88.6889L509.956 89.1126L509.957 89.1133L510.222 88.6889ZM536.72 91.9701L536.577 91.4909L536.72 91.9701ZM545.222 87.8437L545.512 88.2506L545.513 88.2499L545.222 87.8437ZM551.784 81.0326L551.369 80.7541L551.368 80.7553L551.784 81.0326ZM555.612 71.686V71.186H555.205L555.123 71.5844L555.612 71.686ZM567.942 71.686L568.434 71.7738L568.539 71.186H567.942V71.686ZM562.871 85.6562L562.441 85.4L562.871 85.6562ZM553.723 96.1463L554.031 96.5402L554.033 96.5384L553.723 96.1463ZM541.443 102.659L541.287 102.184L541.286 102.184L541.443 102.659ZM503.808 98.5326L503.542 98.9561L503.808 98.5326ZM487.849 80.436L488.297 80.2139L487.849 80.436ZM487.849 24.7542L487.401 24.5321L487.849 24.7542ZM541.443 2.5312L541.286 3.00589L541.287 3.00623L541.443 2.5312ZM553.723 9.0937L553.413 9.48587L553.415 9.4876L553.723 9.0937ZM562.871 19.534L562.441 19.7903L562.442 19.7918L562.871 19.534ZM567.942 33.0042H555.612V34.0042H567.942V33.0042ZM556.102 33.4035C555.361 29.8001 554.062 26.6218 552.198 23.8767L551.37 24.4385C553.152 27.0627 554.405 30.1155 555.122 33.6049L556.102 33.4035ZM552.2 23.8803C550.377 21.1454 548.146 18.8468 545.51 16.9876L544.933 17.8049C547.467 19.5916 549.612 21.8005 551.368 24.435L552.2 23.8803ZM545.516 16.9919C542.916 15.1015 540.031 13.6846 536.863 12.7409L536.577 13.6993C539.64 14.6117 542.423 15.9789 544.927 17.8006L545.516 16.9919ZM536.863 12.7409C533.699 11.7986 530.403 11.3281 526.976 11.3281V12.3281C530.31 12.3281 533.51 12.7856 536.577 13.6993L536.863 12.7409ZM526.976 11.3281C520.722 11.3281 515.045 12.9097 509.957 16.0769L510.486 16.9258C515.408 13.862 520.9 12.3281 526.976 12.3281V11.3281ZM509.956 16.0777C504.894 19.25 500.874 23.9173 497.89 30.054L498.789 30.4914C501.704 24.4974 505.606 19.9838 510.487 16.925L509.956 16.0777ZM497.889 30.056C494.931 36.2065 493.464 43.7261 493.464 52.5951H494.464C494.464 43.8315 495.914 36.4695 498.79 30.4894L497.889 30.056ZM493.464 52.5951C493.464 61.4641 494.931 68.9837 497.889 75.1342L498.79 74.7009C495.914 68.7207 494.464 61.3587 494.464 52.5951H493.464ZM497.89 75.1362C500.874 81.2729 504.894 85.9402 509.956 89.1125L510.487 88.2652C505.606 85.2065 501.704 80.6929 498.789 74.6989L497.89 75.1362ZM509.957 89.1133C515.045 92.2805 520.722 93.8622 526.976 93.8622V92.8622C520.9 92.8622 515.408 91.3282 510.486 88.2644L509.957 89.1133ZM526.976 93.8622C530.403 93.8622 533.699 93.3917 536.863 92.4493L536.577 91.4909C533.51 92.4046 530.31 92.8622 526.976 92.8622V93.8622ZM536.863 92.4493C540.029 91.5061 542.914 90.1068 545.512 88.2506L544.931 87.4368C542.425 89.2265 539.642 90.5781 536.577 91.4909L536.863 92.4493ZM545.513 88.2499C548.148 86.3582 550.377 84.044 552.2 81.31L551.368 80.7553C549.611 83.3906 547.466 85.6171 544.93 87.4375L545.513 88.2499ZM552.199 81.3111C554.062 78.5348 555.361 75.358 556.102 71.7876L555.123 71.5844C554.405 75.0406 553.152 78.0949 551.369 80.7541L552.199 81.3111ZM555.612 72.186H567.942V71.186H555.612V72.186ZM567.45 71.5982C566.531 76.7486 564.86 81.3472 562.441 85.4L563.3 85.9124C565.787 81.7455 567.496 77.0307 568.434 71.7738L567.45 71.5982ZM562.441 85.4C560.019 89.4592 557.01 92.9094 553.413 95.7541L554.033 96.5384C557.728 93.6161 560.817 90.0729 563.3 85.9124L562.441 85.4ZM553.415 95.7523C549.816 98.5659 545.775 100.71 541.287 102.184L541.599 103.134C546.193 101.625 550.338 99.4273 554.031 96.5402L553.415 95.7523ZM541.286 102.184C536.833 103.658 532.064 104.396 526.976 104.396V105.396C532.162 105.396 537.038 104.643 541.6 103.134L541.286 102.184ZM526.976 104.396C518.378 104.396 510.749 102.297 504.074 98.1091L503.542 98.9561C510.39 103.253 518.207 105.396 526.976 105.396V104.396ZM504.074 98.1091C497.398 93.9203 492.138 87.9613 488.297 80.2139L487.401 80.6581C491.316 88.5547 496.696 94.6601 503.542 98.9561L504.074 98.1091ZM488.297 80.2139C484.461 72.4751 482.533 63.2741 482.533 52.5951H481.533C481.533 63.3934 483.482 72.7531 487.401 80.6581L488.297 80.2139ZM482.533 52.5951C482.533 41.9161 484.461 32.7152 488.297 24.9763L487.401 24.5321C483.482 32.4372 481.533 41.7968 481.533 52.5951H482.533ZM488.297 24.9763C492.138 17.229 497.398 11.27 504.074 7.08115L503.542 6.23409C496.696 10.5301 491.316 16.6355 487.401 24.5321L488.297 24.9763ZM504.074 7.08115C510.749 2.89306 518.378 0.79398 526.976 0.79398V-0.20602C518.207 -0.20602 510.39 1.93732 503.542 6.23409L504.074 7.08115ZM526.976 0.79398C532.064 0.79398 536.833 1.53249 541.286 3.00589L541.6 2.05651C537.038 0.546944 532.162 -0.20602 526.976 -0.20602V0.79398ZM541.287 3.00623C545.774 4.47989 549.814 6.63984 553.413 9.48587L554.033 8.70153C550.34 5.78051 546.194 3.56546 541.599 2.05617L541.287 3.00623ZM553.415 9.4876C557.011 12.2987 560.019 15.7316 562.441 19.7903L563.3 19.2778C560.817 15.1168 557.727 11.5895 554.031 8.69979L553.415 9.4876ZM562.442 19.7918C564.86 23.8102 566.531 28.4079 567.449 33.5915L568.434 33.417C567.497 28.127 565.787 23.4112 563.299 19.2763L562.442 19.7918ZM582.297 12.6235H581.797V13.1235H582.297V12.6235ZM582.297 1.68603V1.18603H581.797V1.68603H582.297ZM658.661 1.68603H659.161V1.18603H658.661V1.68603ZM658.661 12.6235V13.1235H659.161V12.6235H658.661ZM626.644 12.6235V12.1235H626.144V12.6235H626.644ZM626.644 103.504V104.004H627.144V103.504H626.644ZM614.314 103.504H613.814V104.004H614.314V103.504ZM614.314 12.6235H614.814V12.1235H614.314V12.6235ZM582.797 12.6235V1.68603H581.797V12.6235H582.797ZM582.297 2.18603H658.661V1.18603H582.297V2.18603ZM658.161 1.68603V12.6235H659.161V1.68603H658.161ZM658.661 12.1235H626.644V13.1235H658.661V12.1235ZM626.144 12.6235V103.504H627.144V12.6235H626.144ZM626.644 103.004H614.314V104.004H626.644V103.004ZM614.814 103.504V12.6235H613.814V103.504H614.814ZM614.314 12.1235H582.297V13.1235H614.314V12.1235Z" fill="#6C707C"/>
</svg>
