<svg width="410" height="368" viewBox="0 0 410 368" fill="none" xmlns="http://www.w3.org/2000/svg">
<path d="M182.512 5.21739C159.038 10.8427 136.903 21.0311 117.371 35.2011C97.8394 49.3711 81.293 67.2451 68.6766 87.8026C56.0603 108.36 47.6211 131.199 43.841 155.014C40.061 178.829 41.0141 203.155 46.6458 226.602C48.0871 232.601 49.8039 238.457 51.7962 244.169L0.504395 357.111L135.459 343.892C161.561 358.519 190.843 366.559 220.762 367.313C250.682 368.067 280.333 361.513 307.14 348.219C333.947 334.925 357.099 315.294 374.584 291.032C392.069 266.769 403.359 238.609 407.473 208.998C411.587 179.387 408.4 149.22 398.189 121.118C387.978 93.0171 371.053 67.831 348.883 47.7484C326.712 27.6659 299.969 13.2944 270.974 5.88234C241.98 -1.52968 211.612 -1.75793 182.509 5.21739H182.512Z" fill="#3759C1"/>
<path d="M204.293 91V75H209.699C210.954 75 211.98 75.2266 212.777 75.6797C213.579 76.1276 214.173 76.7344 214.558 77.5C214.944 78.2656 215.136 79.1198 215.136 80.0625C215.136 81.0052 214.944 81.862 214.558 82.6328C214.178 83.4036 213.59 84.0182 212.793 84.4766C211.996 84.9297 210.975 85.1562 209.73 85.1562H205.855V83.4375H209.668C210.527 83.4375 211.217 83.2891 211.738 82.9922C212.259 82.6953 212.636 82.2943 212.871 81.7891C213.11 81.2786 213.23 80.7031 213.23 80.0625C213.23 79.4219 213.11 78.849 212.871 78.3437C212.636 77.8385 212.256 77.4427 211.73 77.1562C211.204 76.8646 210.506 76.7187 209.636 76.7187H206.23V91H204.293ZM222.754 91.25C221.67 91.25 220.72 90.9922 219.902 90.4766C219.09 89.9609 218.454 89.2396 217.996 88.3125C217.543 87.3854 217.316 86.3021 217.316 85.0625C217.316 83.8125 217.543 82.7214 217.996 81.7891C218.454 80.8568 219.09 80.1328 219.902 79.6172C220.72 79.1016 221.67 78.8438 222.754 78.8438C223.837 78.8438 224.785 79.1016 225.597 79.6172C226.415 80.1328 227.051 80.8568 227.504 81.7891C227.962 82.7214 228.191 83.8125 228.191 85.0625C228.191 86.3021 227.962 87.3854 227.504 88.3125C227.051 89.2396 226.415 89.9609 225.597 90.4766C224.785 90.9922 223.837 91.25 222.754 91.25ZM222.754 89.5938C223.577 89.5938 224.254 89.3828 224.785 88.9609C225.316 88.5391 225.709 87.9844 225.965 87.2969C226.22 86.6094 226.347 85.8646 226.347 85.0625C226.347 84.2604 226.22 83.513 225.965 82.8203C225.709 82.1276 225.316 81.5677 224.785 81.1406C224.254 80.7135 223.577 80.5 222.754 80.5C221.931 80.5 221.254 80.7135 220.722 81.1406C220.191 81.5677 219.798 82.1276 219.543 82.8203C219.288 83.513 219.16 84.2604 219.16 85.0625C219.16 85.8646 219.288 86.6094 219.543 87.2969C219.798 87.9844 220.191 88.5391 220.722 88.9609C221.254 89.3828 221.931 89.5938 222.754 89.5938ZM231.006 91V79H232.849V91H231.006ZM231.943 77C231.584 77 231.274 76.8776 231.013 76.6328C230.758 76.388 230.631 76.0938 230.631 75.75C230.631 75.4063 230.758 75.112 231.013 74.8672C231.274 74.6224 231.584 74.5 231.943 74.5C232.303 74.5 232.61 74.6224 232.865 74.8672C233.125 75.112 233.256 75.4063 233.256 75.75C233.256 76.0938 233.125 76.388 232.865 76.6328C232.61 76.8776 232.303 77 231.943 77ZM238.07 83.7812V91H236.226V79H238.008V80.875H238.164C238.445 80.2656 238.872 79.776 239.445 79.4063C240.018 79.0313 240.758 78.8438 241.664 78.8438C242.476 78.8438 243.187 79.0104 243.797 79.3437C244.406 79.6719 244.88 80.1719 245.219 80.8437C245.557 81.5104 245.726 82.3542 245.726 83.375V91H243.883V83.5C243.883 82.5573 243.638 81.8229 243.148 81.2969C242.659 80.7656 241.987 80.5 241.133 80.5C240.544 80.5 240.018 80.6276 239.554 80.8828C239.096 81.138 238.734 81.5104 238.469 82C238.203 82.4896 238.07 83.0833 238.07 83.7812ZM254.314 79V80.5625H248.095V79H254.314ZM249.908 76.125H251.752V87.5625C251.752 88.0833 251.827 88.474 251.978 88.7344C252.135 88.9896 252.332 89.1615 252.572 89.25C252.817 89.3333 253.075 89.375 253.345 89.375C253.549 89.375 253.715 89.3646 253.845 89.3437C253.976 89.3177 254.08 89.2969 254.158 89.2812L254.533 90.9375C254.408 90.9844 254.233 91.0313 254.01 91.0781C253.786 91.1302 253.502 91.1563 253.158 91.1563C252.637 91.1563 252.127 91.0443 251.627 90.8203C251.132 90.5964 250.72 90.2552 250.392 89.7969C250.069 89.3385 249.908 88.7604 249.908 88.0625V76.125Z" fill="white"/>
<path d="M215.885 166.847C212.648 166.834 209.862 166.038 207.528 164.457C205.207 162.876 203.419 160.586 202.164 157.587C200.922 154.588 200.307 150.981 200.32 146.765C200.32 142.562 200.941 138.979 202.183 136.018C203.438 133.057 205.226 130.805 207.547 129.261C209.881 127.705 212.66 126.928 215.885 126.928C219.11 126.928 221.883 127.705 224.204 129.261C226.538 130.817 228.332 133.076 229.587 136.037C230.841 138.986 231.462 142.562 231.45 146.765C231.45 150.993 230.823 154.607 229.568 157.606C228.326 160.605 226.544 162.895 224.223 164.475C221.901 166.056 219.122 166.847 215.885 166.847ZM215.885 160.09C218.093 160.09 219.856 158.98 221.174 156.759C222.491 154.538 223.144 151.207 223.131 146.765C223.131 143.841 222.83 141.407 222.228 139.462C221.638 137.518 220.797 136.056 219.706 135.077C218.627 134.098 217.353 133.609 215.885 133.609C213.689 133.609 211.933 134.707 210.615 136.903C209.298 139.098 208.633 142.386 208.62 146.765C208.62 149.726 208.915 152.198 209.505 154.18C210.107 156.15 210.954 157.631 212.045 158.622C213.137 159.601 214.417 160.09 215.885 160.09ZM254.03 127.455V166H245.881V135.19H245.655L236.828 140.723V133.496L246.37 127.455H254.03Z" fill="white"/>
<path d="M178.584 218.052H189.628V219.614H178.584V218.052ZM178.584 215.412H189.628V216.93H178.584V215.412ZM176.978 214.224V220.78H191.256V214.224H176.978ZM174.36 222.012V223.376H193.742V222.012H174.36ZM184.128 224.762V226.104H191.96V224.762H184.128ZM177.22 224.894V226.126H182.654V224.894H177.22ZM177.22 227.666V228.898H182.654V227.666H177.22ZM186.438 225.994L185.096 226.39C186.548 229.998 189.386 232.616 193.258 233.76C193.478 233.364 193.918 232.77 194.27 232.462C190.53 231.538 187.714 229.14 186.438 225.994ZM191.454 224.762V225.026C190.244 228.722 186.856 231.296 183.336 232.352C183.644 232.66 184.062 233.254 184.238 233.65C188.066 232.33 191.608 229.58 193.06 225.114L192.048 224.696L191.762 224.762H191.454ZM174.162 231.032L174.316 232.506C176.582 232.242 179.64 231.868 182.61 231.516V230.152C179.508 230.504 176.318 230.856 174.162 231.032ZM181.774 222.452V233.76H183.358V222.452H181.774ZM176.252 222.474V231.428H177.792V222.474H176.252ZM207.998 220.956V222.496H216.182V220.956H207.998ZM196.426 215.83V217.238H206.128V215.83H196.426ZM196.184 224.564V225.994H206.238V224.564H196.184ZM196.118 220.868V222.276H206.392V220.868H196.118ZM212.09 221.572V233.65H213.696V221.572H212.09ZM200.496 213.608V216.556H202.102V213.608H200.496ZM200.496 222.012V233.738H202.102V222.012H200.496ZM207.206 215.324V223.024C207.206 226.148 206.898 229.954 204.082 232.726C204.478 232.946 205.072 233.496 205.27 233.87C208.372 230.812 208.768 226.346 208.768 223.046V216.248C209.076 216.204 209.208 216.116 209.23 215.94L207.206 215.324ZM214.576 213.784C212.97 214.576 210.066 215.346 207.602 215.874C207.8 216.204 208.02 216.776 208.108 217.128C210.748 216.666 213.828 215.918 215.896 214.994L214.576 213.784ZM201.948 226.412L201.046 227.16C201.86 227.842 203.928 229.778 204.632 230.592L205.6 229.36C205.05 228.854 202.652 226.896 201.948 226.412ZM197.746 217.634C198.186 218.646 198.538 219.966 198.604 220.824L199.99 220.45C199.88 219.614 199.506 218.316 199.044 217.348L197.746 217.634ZM203.378 217.304C203.136 218.228 202.674 219.592 202.278 220.472L203.598 220.78C203.994 219.966 204.456 218.734 204.874 217.634L203.378 217.304ZM200.518 225.29C199.462 227.446 197.46 229.822 195.678 230.988C196.052 231.252 196.536 231.78 196.8 232.154C198.56 230.79 200.584 228.194 201.706 225.752L200.518 225.29ZM221.55 215.94V217.766C222.122 217.722 222.826 217.678 223.574 217.678C224.806 217.678 229.932 217.678 231.164 217.678C231.78 217.678 232.55 217.722 233.21 217.766V215.94C232.572 216.006 231.78 216.05 231.164 216.05C229.932 216.05 224.806 216.05 223.53 216.05C222.826 216.05 222.166 216.006 221.55 215.94ZM218.932 221.462V223.288C219.526 223.244 220.186 223.222 220.846 223.222C222.122 223.222 234.068 223.222 235.234 223.222C235.784 223.222 236.488 223.244 236.972 223.288V221.462C236.422 221.528 235.696 221.572 235.234 221.572C234.068 221.572 222.122 221.572 220.846 221.572C220.164 221.572 219.526 221.528 218.932 221.462ZM229.294 222.342L227.446 222.364C227.424 224.784 227.27 226.94 226.17 228.678C225.29 230.086 223.706 231.34 222.012 232.066L223.64 233.254C225.51 232.308 227.16 230.724 227.974 229.25C228.942 227.402 229.294 225.114 229.294 222.342ZM234.354 214.136L233.188 214.642C233.782 215.478 234.53 216.798 234.948 217.678L236.136 217.15C235.696 216.27 234.904 214.928 234.354 214.136ZM236.752 213.256L235.608 213.762C236.224 214.576 236.95 215.83 237.434 216.776L238.6 216.248C238.182 215.434 237.346 214.07 236.752 213.256ZM241.306 222.474V224.63C242.01 224.586 243.176 224.542 244.386 224.542C246.014 224.542 254.792 224.542 256.464 224.542C257.432 224.542 258.356 224.608 258.818 224.63V222.474C258.312 222.518 257.542 222.606 256.442 222.606C254.814 222.606 245.992 222.606 244.386 222.606C243.132 222.606 241.988 222.54 241.306 222.474ZM270.214 221.924L269.004 223.156C271.732 224.85 275.494 227.556 277.518 229.404L278.816 227.864C276.638 226.104 273.03 223.574 270.214 221.924ZM280.268 217.92L278.816 217.04C278.464 217.172 277.98 217.238 277.386 217.238H270.39L269.686 218.822H277.826C277.32 220.868 275.934 223.662 274.24 225.686C272.26 228.04 269.268 230.372 265.176 231.604L266.738 232.99C270.918 231.45 273.778 229.096 275.78 226.632C277.716 224.256 279.102 221.33 279.762 219.086C279.872 218.734 280.092 218.228 280.268 217.92ZM272.854 214.73L270.852 214.092C270.72 214.664 270.368 215.456 270.148 215.83C269.136 217.854 266.87 221.154 263.108 223.508L264.56 224.63C268.08 222.21 270.566 218.888 271.864 216.468C272.084 216.05 272.48 215.302 272.854 214.73ZM195.326 243.556V245.162H203.444V243.556H195.326ZM185.118 241.906V243.446H195.876V241.906H185.118ZM187.692 246.372V247.89H193.412V246.372H187.692ZM187.692 250.948V252.444H193.412V250.948H187.692ZM202.96 243.556V243.952C202.014 251.674 198.736 256.844 194.38 259.11C194.754 259.418 195.216 260.034 195.48 260.452C200.188 257.724 203.554 252.554 204.61 243.798L203.554 243.512L203.246 243.556H202.96ZM197.328 245.25L195.744 245.558C197.108 252.466 199.638 257.834 204.412 260.54C204.676 260.1 205.204 259.484 205.578 259.154C201.046 256.822 198.494 251.608 197.328 245.25ZM186.834 242.5V256.778H188.418V242.5H186.834ZM192.73 242.5V260.716H194.314V242.5H192.73ZM184.678 256.294L184.986 257.944C187.274 257.592 190.442 257.086 193.456 256.602L193.368 255.084C190.156 255.568 186.834 256.03 184.678 256.294ZM216.666 245.426H223.948V247.23H216.666V245.426ZM216.666 242.456H223.948V244.238H216.666V242.456ZM215.082 241.202V248.484H225.598V241.202H215.082ZM213.718 250.002V251.388H226.654V250.002H213.718ZM213.212 253.28V254.732H227.05V253.28H213.212ZM222.1 251.212V258.912C222.1 259.198 222.012 259.286 221.66 259.308C221.33 259.33 220.23 259.33 218.976 259.286C219.196 259.726 219.46 260.342 219.526 260.782C221.176 260.782 222.232 260.782 222.892 260.518C223.552 260.276 223.75 259.836 223.75 258.956V251.212H222.1ZM215.126 255.854C216.116 256.822 217.304 258.186 217.832 259.066L219.086 258.142C218.514 257.284 217.304 255.986 216.292 255.062L215.126 255.854ZM212.002 245.426C210.682 247.714 208.548 249.98 206.546 251.432C206.832 251.806 207.294 252.686 207.426 253.016C209.604 251.3 211.958 248.638 213.454 246.02L212.002 245.426ZM211.584 240.586C210.638 242.148 208.658 243.974 206.898 245.118C207.184 245.448 207.602 246.086 207.778 246.46C209.736 245.162 211.848 243.094 213.168 241.202L211.584 240.586ZM210.022 249.32V260.76H211.628V247.802L211.562 247.758L210.022 249.32ZM235.74 251.784V253.126H249.094V251.784H235.74ZM237.478 255.26C238.622 255.964 240.074 257.02 240.778 257.724L241.702 256.58C240.976 255.898 239.502 254.908 238.358 254.248L237.478 255.26ZM244.606 250.486C245.42 250.948 246.41 251.674 246.894 252.158L247.752 251.3C247.246 250.794 246.234 250.134 245.42 249.694L244.606 250.486ZM237.368 252.4C237.192 255.282 236.664 258.098 234.486 259.638C234.838 259.88 235.278 260.386 235.498 260.716C237.962 258.912 238.622 255.81 238.864 252.4H237.368ZM241.328 240.542C241.372 251.784 242.758 260.782 247.18 260.804C248.654 260.804 249.138 260.078 249.424 257.592C249.072 257.46 248.566 257.174 248.258 256.866C248.148 258.868 247.928 259.374 247.29 259.374C244.298 259.374 242.692 251.498 242.802 240.542H241.328ZM246.256 253.478C245.024 256.206 242.516 258.428 239.216 259.704C239.524 259.968 239.942 260.474 240.14 260.76C243.528 259.352 246.234 257.042 247.664 254.006L246.256 253.478ZM242.912 244.37C243.858 245.096 244.958 246.152 245.464 246.878L246.168 245.844C245.662 245.14 244.562 244.128 243.594 243.468L242.912 244.37ZM247.026 247.032C247.598 248.066 248.148 249.452 248.346 250.31L249.424 249.804C249.248 248.968 248.654 247.648 248.038 246.636L247.026 247.032ZM243.198 248.572L243.44 249.848C244.892 249.716 246.564 249.562 248.324 249.386V248.242C246.388 248.374 244.562 248.484 243.198 248.572ZM245.464 240.74C245.09 241.818 244.364 243.402 243.814 244.37L244.76 244.81C245.376 243.908 246.124 242.478 246.74 241.246L245.464 240.74ZM247.268 242.94C246.432 244.722 244.936 247.23 243.77 248.748L244.694 249.276C245.882 247.78 247.378 245.426 248.5 243.534L247.268 242.94ZM235.454 244.37C236.4 245.096 237.5 246.152 238.006 246.878L238.71 245.844C238.226 245.14 237.104 244.128 236.158 243.468L235.454 244.37ZM239.282 247.164C239.81 248.22 240.294 249.584 240.448 250.442L241.526 249.98C241.394 249.144 240.866 247.802 240.294 246.79L239.282 247.164ZM235.542 248.814L235.784 250.112C237.236 249.98 238.93 249.826 240.69 249.65V248.462C238.732 248.616 236.928 248.748 235.542 248.814ZM238.028 240.74C237.632 241.818 236.928 243.424 236.378 244.414L237.324 244.832C237.918 243.93 238.666 242.478 239.304 241.268L238.028 240.74ZM239.832 242.94C238.952 244.788 237.39 247.384 236.158 248.946L237.104 249.452C238.358 247.934 239.898 245.492 241.042 243.534L239.832 242.94ZM229.206 245.294V246.834H235.872V245.294H229.206ZM232 240.52V260.738H233.496V240.52H232ZM231.934 246.218C231.406 249.342 230.086 253.192 228.744 255.172C229.008 255.524 229.382 256.14 229.558 256.536C231.01 254.336 232.308 250.002 232.924 246.526L231.934 246.218ZM233.386 247.67L232.704 248.308C233.232 249.166 234.618 251.762 235.058 252.862L235.894 251.652C235.542 251.014 233.826 248.264 233.386 247.67ZM254.638 240.52C254.11 242.126 253.076 244.436 252.24 245.844L253.648 246.262C254.528 244.876 255.562 242.742 256.354 240.916L254.638 240.52ZM250.942 245.184L251.096 246.79C253.494 246.658 256.904 246.482 260.182 246.284L260.204 244.81C256.75 244.964 253.252 245.118 250.942 245.184ZM252.284 248.374V260.738H253.824V249.782H259.258V248.374H252.284ZM258.51 248.374V258.846C258.51 259.132 258.422 259.198 258.136 259.198C257.828 259.22 256.882 259.242 255.848 259.198C256.068 259.616 256.31 260.276 256.398 260.716C257.784 260.716 258.752 260.694 259.368 260.43C259.962 260.166 260.138 259.704 260.138 258.868V248.374H258.51ZM253.01 251.652V252.95H259.368V251.652H253.01ZM253.01 254.952V256.272H259.368V254.952H253.01ZM262.206 240.564V247.868C262.206 249.694 262.756 250.2 264.868 250.2C265.308 250.2 268.19 250.2 268.652 250.2C270.434 250.2 270.918 249.474 271.116 246.79C270.632 246.68 269.972 246.438 269.62 246.152C269.532 248.33 269.378 248.704 268.52 248.704C267.882 248.704 265.484 248.704 265.022 248.704C264.01 248.704 263.834 248.55 263.834 247.846V240.564H262.206ZM268.938 242.192C267.442 242.962 264.934 243.93 262.756 244.612C262.954 244.942 263.174 245.426 263.262 245.778C265.528 245.14 268.168 244.282 270.038 243.402L268.938 242.192ZM262.206 250.794V258.252C262.206 260.078 262.778 260.584 264.912 260.584C265.374 260.584 268.344 260.584 268.828 260.584C270.676 260.584 271.16 259.792 271.38 256.822C270.918 256.734 270.258 256.47 269.884 256.206C269.774 258.692 269.642 259.11 268.696 259.11C268.036 259.11 265.55 259.11 265.088 259.11C264.032 259.11 263.834 258.978 263.834 258.23V250.794H262.206ZM269.202 252.004C267.706 252.972 265.044 253.984 262.756 254.644C262.932 254.974 263.174 255.502 263.262 255.832C265.638 255.194 268.454 254.292 270.302 253.236L269.202 252.004ZM257.388 242.61C258.554 244.172 259.742 246.284 260.204 247.626L261.656 246.988C261.15 245.624 259.918 243.6 258.752 242.06L257.388 242.61Z" fill="white"/>
</svg>
