<svg width="466" height="515" viewBox="0 0 466 515" fill="none" xmlns="http://www.w3.org/2000/svg">
<path d="M387.548 41.5162L329.963 50.9551C325.319 51.7162 322.173 56.0933 322.935 60.7316L328.449 94.2988C329.211 98.937 333.593 102.08 338.237 101.319L395.822 91.88C400.466 91.1189 403.612 86.7418 402.85 82.1035L397.336 48.5364C396.574 43.8981 392.192 40.7551 387.548 41.5162Z" fill="white"/>
<path d="M235.621 428.729C232.536 428.67 231.645 431.359 230.572 433.284C228.197 437.531 225.157 439.308 220.434 437.452C209.201 431.85 196.993 428.949 184.708 424.046C185.424 438.553 186.16 452.305 186.724 466.063C186.81 468.169 188.511 468.003 189.48 468.874C187.494 475.85 185.508 482.827 183.522 489.803C181.964 492.613 181.891 495.922 180.61 498.778C179.117 502.11 180.427 503.475 183.507 504.101C183.523 505.999 182.892 507.847 181.716 509.339C180.696 510.692 181.061 511.583 182.747 511.518C191.098 511.199 199.49 512.367 207.805 510.893C209.549 510.862 211.077 512.528 212.941 511.541C295.312 511.547 377.683 511.572 460.054 511.616C461.805 511.616 465.006 510.385 465.039 513.027C465.067 515.218 461.917 514.184 460.221 514.186C308.576 514.239 156.932 514.239 5.28904 514.186C3.58419 514.186 0.436256 515.197 0.444229 513.057C0.453531 510.384 3.64133 511.628 5.38472 511.617C21.9748 511.511 38.5663 511.553 55.1564 511.553H60.1726C56.7297 507.826 56.7018 503.847 56.7084 499.764C56.7572 461.681 56.7674 423.597 56.739 385.513C56.739 378.059 60.1527 374.622 67.5196 374.621C76.396 374.621 85.2737 374.649 94.1515 374.594C95.6783 374.585 97.3924 375.181 98.6694 373.728C114.4 381.362 130.062 380.654 145.603 373.206C147.729 372.191 149.501 372.884 151.449 373.368C154.109 374.155 156.919 374.289 159.642 373.758C162.805 373.012 162.954 370.023 164.112 366.177C166.704 374.62 172.729 372.876 177.979 373.166C179.284 373.213 180.582 373.379 181.857 373.664C183.794 374.139 184.676 373.517 185.319 371.58C187.368 365.397 189.649 359.292 191.84 353.158C193.559 352.961 193.911 354.494 194.731 355.436C194.325 357.113 194.055 358.835 193.49 360.456C187.776 376.85 181.964 393.211 176.278 409.614C174.511 414.711 175.457 416.525 180.336 418.228C188.679 421.139 197.001 424.109 205.396 426.855C208.427 427.891 211.655 428.218 214.832 427.813C218.009 427.408 221.051 426.282 223.724 424.519C230.968 420.007 233.911 412.072 238.085 405.331C244.111 395.599 245.571 384.177 247.045 373.002C247.882 366.658 247.424 366.439 241.287 364.332C240.329 364.002 239.392 363.614 238.43 363.301C227.979 359.901 217.899 355.4 207.169 352.831C207.852 351.478 208.115 349.953 207.925 348.451C221.923 352.626 235.52 357.959 249.287 362.8C251.955 363.738 252.609 365.966 252.56 368.752C252.331 388.248 246.783 407.313 236.513 423.894C235.977 424.564 235.615 425.356 235.46 426.2C235.304 427.043 235.36 427.912 235.621 428.729Z" fill="#F1F1F1"/>
<path d="M76.6737 351.346C72.953 351.972 72.1677 349.572 71.3585 346.648C69.0995 338.49 69.3387 330.698 73.1125 322.937C76.2857 316.409 76.7308 310.086 71.2309 304.008C66.8073 299.121 67.2206 294.679 71.5551 289.586C74.2845 286.38 74.8692 282.569 75.0951 278.629C75.907 264.461 72.7032 250.675 71.2761 236.71C69.3321 217.78 73.2228 200.045 86.4922 185.366C93.3369 177.8 102.118 178.115 111.124 179.465C111.553 179.53 111.988 179.813 112.391 179.762C122.204 178.534 125.097 184.563 126.404 192.686C127.302 196.89 128.41 201.046 129.726 205.139C135.103 199.727 143.498 198.558 145.96 190.414C146.302 189.285 146.575 188.847 148.137 190.015C150.373 191.696 153.738 189.199 153.734 186.209C153.734 185.099 153.655 183.992 154.892 183.76C160.419 182.725 163.633 178.246 167.721 175.133C169.667 173.65 171.057 173.338 172.855 174.888C176.233 178.708 179.411 182.734 183.866 185.434C184.246 186.267 184.352 187.199 184.168 188.096C183.984 188.994 183.519 189.809 182.841 190.426C169.432 205.338 156.021 220.245 141.405 234.004C139.252 236.03 138.581 237.736 139.442 240.753C144.528 258.588 149.4 276.485 154.192 294.405C154.89 297.213 156.395 299.755 158.521 301.719C162.12 305.103 165.564 308.651 169.053 312.147C170.024 313.422 171.393 314.336 172.943 314.745C173.804 316.869 175.266 318.836 174.68 321.342C169.638 324.068 166.966 328.801 164.315 333.553C162.431 335.128 161.058 333.618 159.72 332.674C151.467 326.859 143.226 321.027 135.06 315.089C134.462 314.501 133.661 314.162 132.822 314.143C131.983 314.123 131.168 314.422 130.542 314.981C113.236 326.247 95.8727 337.426 78.453 348.518C77.9716 348.835 77.5639 349.252 77.257 349.74C76.9501 350.228 76.7512 350.776 76.6737 351.346Z" fill="#302F42"/>
<path d="M174.666 321.344C175.252 318.84 173.791 316.874 172.93 314.749C194.743 316.504 214.319 325.811 234.492 333.056C244.46 336.637 254.266 340.639 263.91 345.063C265.598 345.701 267.076 346.795 268.179 348.222C269.281 349.649 269.966 351.354 270.156 353.146C271.943 364.844 271.953 376.629 272.132 388.383C272.559 416.59 271.532 444.783 270.84 472.981C270.73 477.46 267.761 475.542 265.837 476.156L252.138 476.084C249.36 476.287 249.458 473.979 248.949 472.32C244.484 457.797 240.044 443.266 235.629 428.729C235.372 427.913 235.321 427.048 235.478 426.208C235.636 425.368 235.998 424.58 236.533 423.913C246.803 407.332 252.351 388.267 252.579 368.77C252.63 365.983 251.975 363.757 249.307 362.819C235.54 357.978 221.943 352.645 207.944 348.47C207.855 344.072 205.487 340.582 201.35 340.772C195.856 341.03 192.83 338.005 189.443 334.862C184.549 330.324 179.592 325.848 174.666 321.344Z" fill="#302F42"/>
<path d="M76.6735 351.347C76.7495 350.777 76.9462 350.231 77.2505 349.743C77.5548 349.255 77.9597 348.839 78.4382 348.52C95.8322 337.385 113.195 326.205 130.527 314.983C131.153 314.424 131.968 314.124 132.808 314.144C133.647 314.164 134.447 314.502 135.045 315.09C143.211 321.029 151.452 326.861 159.705 332.676C161.043 333.619 162.416 335.13 164.299 333.554C170.854 337.949 177.471 342.256 183.939 346.777C186.706 348.713 190.159 349.879 191.854 353.164C189.663 359.298 187.383 365.404 185.334 371.587C184.691 373.523 183.808 374.146 181.871 373.671C180.597 373.386 179.299 373.22 177.994 373.173C172.743 372.882 166.719 374.626 164.126 366.183C162.969 370.032 162.82 373.019 159.656 373.765C156.934 374.295 154.123 374.161 151.464 373.375C149.509 372.89 147.73 372.197 145.617 373.213C130.07 380.66 114.414 381.369 98.6838 373.734C90.0121 368.858 83.4026 361.726 77.1878 354.158C76.8746 353.769 76.6636 353.308 76.5738 352.818C76.484 352.327 76.5183 351.821 76.6735 351.347Z" fill="#302F42"/>
<path d="M101.009 172.445C100.161 174.983 98.8751 175.656 96.3225 174.14C92.7015 171.99 88.945 170.063 85.809 167.205C80.9442 162.77 78.0581 157.421 78.7424 150.649C79.0634 146.882 78.386 143.097 76.7784 139.674C72.3695 129.495 77.6634 120.473 88.6898 119.211C92.5806 118.766 96.5537 119.19 100.391 118.14C104.719 116.957 108.129 114.771 109.043 109.995C109.462 107.811 110.309 105.91 112.846 106.078C115.591 106.261 116.686 108.284 117.118 110.806C117.408 112.496 116.176 115.099 117.494 115.679C119.59 116.599 121.91 115.007 123.993 114.009C126.64 112.773 128.966 110.946 130.792 108.668C132.183 106.911 132.97 107.355 133.873 109.032C135.64 112.306 135.078 115.437 133.222 118.789C136.536 119.032 137.757 116.587 139.283 114.621C140.722 116.146 141.85 117.936 142.605 119.892C145.233 126.323 142.347 130.85 135.429 131.143C133.106 131.243 130.778 131.276 128.457 131.344C118.757 131.02 113.407 133.758 111.44 140.767C110.594 143.786 109.314 144.448 106.383 144.417C97.1078 144.322 93.6595 149.891 98.0672 157.979C100.505 162.387 101.532 167.436 101.009 172.445Z" fill="#313042"/>
<path d="M91.7104 41.5957C86.2251 50.4356 80.738 59.2742 75.2492 68.1123C70.1918 76.2181 65.0719 84.2842 60.0238 92.402C56.715 97.7112 54.4694 98.4611 49.4598 95.2928C35.995 86.7755 22.602 78.1443 9.16644 69.5819C5.52021 67.2564 4.15819 64.9627 5.61323 59.98C10.3119 43.8838 17.4396 29.2279 28.2561 16.4182C33.1472 10.8657 38.5176 5.75355 44.3053 1.14089C45.0719 0.55743 46.0124 0.247706 46.976 0.261423C47.9397 0.27514 48.8709 0.611351 49.6206 1.21639C61.3876 8.62097 73.1364 16.0539 84.8671 23.5151C85.3347 23.7149 85.7373 24.0408 86.03 24.4562C86.3227 24.8716 86.4937 25.36 86.5241 25.8671L84.6943 28.3052C73.5953 21.1891 62.494 14.077 51.3905 6.9689C49.4877 5.75442 47.5529 4.83745 45.48 6.83637C38.4379 13.5251 32.1168 20.9324 26.6203 28.9371C22.2871 35.3467 20.8586 42.7517 18.1452 49.7015C14.2691 59.6231 17.6336 69.648 26.5392 75.5492C33.7852 80.3514 41.168 84.948 48.5044 89.6187C52.823 92.3663 55.442 91.8554 58.2206 87.4846C66.5349 74.4093 74.6977 61.2411 83.1011 48.219C84.6957 45.7409 85.6644 42.6175 88.6821 41.2198L91.7104 41.5957Z" fill="#F1F1F1"/>
<path d="M189.477 468.879C188.509 468.009 186.808 468.174 186.721 466.068C186.158 452.31 185.422 438.558 184.706 424.051C196.99 428.949 209.198 431.85 220.432 437.457C217.003 447.864 213.493 458.245 210.189 468.691C208.946 472.625 207.471 475.545 202.639 473.233C198.54 470.91 193.898 470.226 189.477 468.879Z" fill="#313042"/>
<path d="M286.51 115.849C291.804 114.353 297.223 115.119 302.573 115.11C347.242 115.033 391.912 115.026 436.582 115.091C452.793 115.097 462.319 124.612 462.327 140.81C462.34 170.896 462.34 200.981 462.327 231.067C462.317 246.717 452.713 256.405 437.118 256.418C389.249 256.445 341.378 256.445 293.507 256.418C278.078 256.41 268.468 246.811 268.455 231.425C268.428 200.905 268.477 170.386 268.416 139.866C268.284 135.353 269.327 130.883 271.443 126.893C271.94 127.276 272.441 127.652 272.942 128.031C270.898 131.736 269.94 135.94 270.177 140.164C270.218 170.544 270.227 200.925 270.205 231.307C270.214 245.858 278.989 254.667 293.545 254.667C341.425 254.691 389.307 254.691 437.189 254.667C451.687 254.659 460.561 245.764 460.576 231.278C460.601 200.898 460.601 170.516 460.576 140.135C460.561 125.765 451.551 116.858 437.056 116.852C389.174 116.836 341.293 116.836 293.412 116.852C291.23 116.695 289.038 116.929 286.938 117.541C286.847 116.953 285.879 116.6 286.51 115.849Z" fill="#403E56"/>
<path d="M101.009 172.445C101.533 167.436 100.508 162.386 98.0701 157.978C93.6625 149.89 97.1107 144.321 106.386 144.416C109.316 144.447 110.597 143.785 111.443 140.766C113.41 133.758 118.76 131.02 128.46 131.343C132.073 137.658 134.095 144.228 132.782 151.674C130.201 166.35 115.177 176.273 101.009 172.445Z" fill="#E0BFAD"/>
<path d="M183.859 185.442C179.405 182.743 176.226 178.717 172.849 174.897C179.296 169.123 185.741 163.346 192.183 157.566C193.426 156.446 194.734 155.562 194.787 153.41C194.92 147.894 197.142 145.081 201.431 144.192C205.893 143.263 208.872 145.158 211.357 150.485C211.37 151.074 211.381 151.664 211.392 152.254C211.155 155.323 209.486 157.387 207.245 159.473C199.741 166.459 193.769 174.845 186.877 182.4C185.912 183.451 184.866 184.426 183.859 185.442Z" fill="#E0BFAD"/>
<path d="M212.939 511.547C211.078 512.533 209.546 510.867 207.803 510.898L183.504 504.106C180.424 503.481 179.119 502.115 180.607 498.783C181.888 495.927 181.961 492.618 183.519 489.81C188.017 490.778 192.422 489.677 196.844 489.179C197.13 489.154 197.588 489.001 197.676 489.121C201.456 494.28 208.107 496.365 211.477 501.938C213.277 504.923 213.158 508.242 212.939 511.547Z" fill="#313042"/>
<path d="M264.543 490.683C264.965 490.573 265.59 490.226 265.778 490.386C270.547 494.464 277.484 494.322 282.044 498.741C282.842 499.582 283.545 500.508 284.14 501.503C285.364 503.378 286.497 505.709 285.601 507.627C284.736 509.485 282.182 508.423 280.399 508.442C271.96 508.537 263.523 508.395 255.08 508.536C252.441 508.58 251.325 507.82 251.64 505.101C252.039 501.675 251.049 498.175 252.137 494.776C256.724 494.756 260.556 492.482 264.543 490.683Z" fill="#313042"/>
<path d="M196.844 489.179C192.415 489.672 188.017 490.778 183.519 489.809C185.505 482.831 187.491 475.854 189.477 468.879C193.898 470.226 198.54 470.91 202.633 473.227C201.144 478.702 197.604 483.437 196.844 489.179Z" fill="#E0BFAD"/>
<path d="M286.51 115.849C285.879 116.6 286.847 116.954 286.928 117.529C288.44 121.653 287.669 125.311 284.259 128.077C280.58 131.061 276.704 130.19 272.939 128.021C272.438 127.643 271.937 127.266 271.44 126.884C270.452 124.254 270.038 121.445 270.226 118.643L271.084 116.897C276.132 111.238 279.278 111.024 286.51 115.849Z" fill="#746CFE"/>
<path d="M84.689 28.3009L86.5188 25.8627C93.3847 22.8896 95.7061 23.3116 100.407 28.3952L101.221 30.134C101.335 37.9266 99.0321 40.702 91.7091 41.5953L88.6794 41.2155C84.5548 37.7712 82.4965 33.6897 84.689 28.3009Z" fill="#746CFE"/>
<path d="M332.41 42.4341C333.333 43.9091 334.257 45.3834 335.182 46.8567C335.979 52.0332 333.795 55.5743 329.202 57.8095L324 57.9689C319.206 55.7125 317.206 51.9349 317.888 46.7079C318.175 46.1266 318.461 45.5449 318.747 44.9626C323.31 39.9109 325.892 39.4383 332.41 42.4341Z" fill="#746CFE"/>
<path d="M264.543 490.683C260.556 492.483 256.72 494.756 252.142 494.776C252.137 488.544 252.132 482.313 252.128 476.084L265.826 476.156C265.545 481.011 264.124 485.765 264.543 490.683Z" fill="#E0BFAD"/>
<path d="M318.748 44.9628C318.461 45.5441 318.175 46.1259 317.889 46.7081H249.966L249.934 45.4061C254.747 44.1969 259.746 45.373 264.605 44.7638L267.247 44.7227L318.748 44.9628Z" fill="#403E56"/>
<path d="M150.186 28.1487L154.571 28.1885H169.134L169.126 30.1345H101.225C100.952 29.554 100.68 28.9743 100.41 28.3956L150.186 28.1487Z" fill="#403E56"/>
<path d="M207.181 352.844C217.911 355.413 227.991 359.915 238.442 363.314C239.404 363.627 240.341 364.016 241.299 364.345C247.436 366.453 247.894 366.672 247.057 373.015C245.583 384.191 244.123 395.612 238.097 405.344C233.923 412.085 230.98 420.017 223.736 424.533C221.063 426.295 218.021 427.422 214.844 427.827C211.667 428.232 208.439 427.904 205.408 426.869C197.013 424.116 188.69 421.145 180.348 418.241C175.469 416.538 174.523 414.724 176.29 409.627C181.976 393.224 187.784 376.863 193.502 360.469C194.067 358.849 194.337 357.126 194.743 355.449C199.504 357.513 203.807 357.398 207.181 352.844ZM230.974 394.749C231.039 394.25 230.934 393.744 230.677 393.311C230.42 392.878 230.026 392.543 229.556 392.36C228.242 391.764 226.847 391.345 225.484 390.86C216.347 387.606 207.21 384.354 198.073 381.106C196.65 380.599 195.14 380.195 194.274 381.892C193.44 383.524 194.697 384.374 195.936 384.822C206.553 388.67 217.183 392.475 227.828 396.237C228.127 396.39 228.458 396.473 228.794 396.478C229.131 396.483 229.464 396.411 229.768 396.267C230.072 396.123 230.339 395.912 230.548 395.649C230.757 395.385 230.903 395.078 230.974 394.749ZM193.628 389.396C192.293 389.374 191.369 389.662 191.157 390.927C191.048 391.509 191.171 392.11 191.499 392.603C191.827 393.096 192.334 393.442 192.913 393.567C203.427 397.347 213.947 401.111 224.474 404.858C225.881 405.36 227.201 405.167 227.736 403.664C228.297 402.088 227.165 401.285 225.85 400.744C225.585 400.635 225.319 400.523 225.039 400.426C215.057 396.876 205.076 393.329 195.094 389.784C194.55 389.601 193.983 389.489 193.628 389.396ZM191.205 398.187C189.671 397.972 188.281 398.017 187.932 399.672C187.569 401.362 188.995 401.935 190.213 402.371C200.312 406 210.435 409.577 220.546 413.179C222.073 413.722 223.797 414.569 224.498 412.299C225.162 410.166 223.34 409.637 221.816 409.092C214.848 406.604 207.878 404.12 200.907 401.641L191.205 398.187ZM232.041 385.615C233.536 385.683 234.381 385.217 234.738 384.139C234.825 383.899 234.863 383.643 234.849 383.388C234.836 383.132 234.771 382.882 234.658 382.652C234.546 382.423 234.388 382.218 234.195 382.05C234.001 381.883 233.776 381.756 233.532 381.677C231.14 380.705 228.714 379.836 226.257 379.066C225.77 378.896 225.235 378.927 224.77 379.151C224.305 379.375 223.948 379.774 223.778 380.261C223.66 380.487 223.592 380.736 223.578 380.991C223.564 381.246 223.604 381.501 223.696 381.739C223.788 381.977 223.929 382.193 224.11 382.373C224.291 382.553 224.508 382.693 224.748 382.783C227.25 383.855 229.818 384.766 232.041 385.615Z" fill="#FEFEFE"/>
<path d="M207.181 352.844C203.807 357.398 199.504 357.513 194.743 355.443C193.923 354.5 193.571 352.967 191.852 353.165C190.156 349.879 186.704 348.713 183.936 346.777C177.469 342.256 170.851 337.949 164.296 333.554C166.954 328.805 169.625 324.072 174.661 321.343C179.587 325.845 184.539 330.321 189.429 334.863C192.816 338.006 195.842 341.031 201.337 340.773C205.473 340.579 207.848 344.069 207.93 348.472C208.122 349.971 207.861 351.494 207.181 352.844Z" fill="#E0BFAD"/>
<path d="M183.504 504.106L207.803 510.896C199.483 512.371 191.095 511.203 182.744 511.521C181.058 511.587 180.694 510.696 181.713 509.343C182.888 507.851 183.52 506.004 183.504 504.106Z" fill="#FEFEFE"/>
<path d="M84.6889 28.3011C82.499 33.6899 84.556 37.7713 88.6753 41.2157C85.6549 42.612 84.6889 45.7351 83.0943 48.2132C74.6976 61.2354 66.5281 74.4035 58.2138 87.4788C55.4352 91.8496 52.8162 92.3608 48.4976 89.6133C41.1612 84.9465 33.7784 80.3499 26.5324 75.5438C17.6294 69.6426 14.2623 59.616 18.1384 49.6957C20.8518 42.746 22.2802 35.3412 26.6135 28.9317C32.11 20.9269 38.4311 13.5194 45.4732 6.83059C47.5461 4.82902 49.4809 5.74631 51.3837 6.96345C62.4978 14.0583 73.5995 21.1708 84.6889 28.3011ZM27.6393 50.1432C26.5351 50.3914 25.779 50.8717 25.5504 51.769C25.1398 53.3909 26.3783 54.0561 27.4958 54.7596C36.3182 60.3184 45.1401 65.8758 53.9616 71.4319C55.4871 72.3889 57.3421 74.1795 58.7453 71.7213C59.9518 69.6122 57.6424 68.7426 56.2857 67.8719C47.6152 62.349 38.8996 56.8979 30.1866 51.4427C29.3442 50.9224 28.414 50.5361 27.6393 50.1432ZM37.8631 34.6932C37.3231 34.6159 36.7736 34.7433 36.3226 35.05C35.8717 35.3568 35.5519 35.8208 35.4261 36.3511C35.0009 38.0301 36.3975 38.6074 37.4725 39.2844C46.3152 44.8803 55.1664 50.4639 64.0259 56.0351C65.5036 56.9642 67.3054 58.3007 68.5638 56.246C69.8926 54.0706 67.5632 53.2463 66.1972 52.3769C57.4935 46.8354 48.7474 41.3604 40.0078 35.8773C39.2757 35.4181 38.4943 35.0397 37.8631 34.6932ZM32.7579 42.3917C31.5779 42.5244 30.8364 42.9679 30.5972 43.9063C30.1242 45.7645 31.5779 46.4653 32.7844 47.2245C41.605 52.8098 50.4376 58.3766 59.2821 63.9247C60.6109 64.7542 62.3105 66.0005 63.4772 64.1755C64.7874 62.1275 62.8553 61.1307 61.3644 60.1936C52.5278 54.634 43.6917 49.0737 34.8561 43.5132C34.1279 43.0659 33.3465 42.7091 32.7579 42.3972V42.3917ZM52.0747 31.1666C51.9418 30.8083 51.9205 30.2868 51.6455 30.0266C49.325 27.8481 46.6034 26.1401 43.6315 24.9974C42.7465 24.6496 42.0117 25.3958 41.5705 26.22C41.3478 26.6052 41.2826 27.0615 41.3886 27.4935C41.4946 27.9256 41.7635 28.2998 42.1392 28.5386C44.3852 30.124 46.7173 31.5843 49.1247 32.9123C50.6316 33.7193 51.5139 32.5857 52.0747 31.1721V31.1666Z" fill="#FEFEFE"/>
<path d="M272.939 128.021C276.704 130.19 280.58 131.061 284.26 128.077C287.669 125.311 288.44 121.653 286.928 117.529C289.028 116.916 291.221 116.683 293.403 116.84C341.283 116.84 389.165 116.84 437.047 116.84C451.543 116.84 460.553 125.753 460.567 140.122C460.596 170.503 460.596 200.884 460.567 231.265C460.555 245.752 451.681 254.647 437.18 254.655C389.298 254.682 341.417 254.682 293.536 254.655C278.98 254.647 270.205 245.842 270.195 231.295C270.175 200.914 270.166 170.533 270.168 140.151C269.933 135.928 270.894 131.725 272.939 128.021ZM365.386 192.705C343.423 192.705 321.461 192.705 299.498 192.705C298.336 192.705 297.166 192.683 296.013 192.798C295.494 192.795 294.993 192.991 294.616 193.348C294.239 193.704 294.014 194.192 293.988 194.71C293.896 196.13 294.798 196.834 296.097 196.977C297.111 197.061 298.129 197.088 299.146 197.058C343.362 197.058 387.578 197.058 431.795 197.058C432.812 197.083 433.83 197.053 434.844 196.966C435.118 196.961 435.389 196.902 435.641 196.791C435.892 196.681 436.12 196.523 436.31 196.325C436.501 196.127 436.65 195.894 436.75 195.638C436.85 195.383 436.899 195.11 436.893 194.835C436.888 194.561 436.828 194.291 436.718 194.039C436.608 193.788 436.449 193.561 436.251 193.37C436.053 193.18 435.819 193.031 435.563 192.931C435.308 192.831 435.035 192.783 434.76 192.788C433.6 192.701 432.437 192.673 431.274 192.705C409.312 192.703 387.349 192.703 365.386 192.705ZM364.978 178.745H404.249C413.994 178.745 423.738 178.743 433.483 178.737C435.145 178.737 436.972 178.63 436.826 176.369C436.703 174.455 435.012 174.402 433.511 174.389C432.784 174.389 432.049 174.389 431.329 174.389C387.404 174.389 343.479 174.389 299.553 174.389C298.39 174.355 297.227 174.385 296.067 174.478C295.521 174.488 295.001 174.709 294.617 175.097C294.233 175.485 294.016 176.007 294.012 176.552C294.008 177.098 294.218 177.623 294.596 178.016C294.975 178.409 295.492 178.638 296.038 178.655C297.193 178.763 298.362 178.743 299.525 178.743C321.342 178.745 343.16 178.746 364.978 178.745ZM365.325 211.023C343.372 211.023 321.418 211.023 299.464 211.023C298.301 210.994 297.138 211.027 295.98 211.12C295.461 211.122 294.963 211.326 294.591 211.688C294.22 212.049 294.003 212.541 293.986 213.059C293.916 214.478 294.83 215.161 296.128 215.299C297.143 215.378 298.161 215.404 299.178 215.376C343.085 215.376 386.993 215.373 430.901 215.367C432.2 215.443 433.503 215.328 434.769 215.027C435.355 214.93 435.88 214.607 436.232 214.129C436.584 213.65 436.735 213.053 436.652 212.465C436.408 211.3 435.307 211.066 434.242 211.037C433.225 211.011 432.206 211.02 431.185 211.02L365.325 211.023ZM341.406 160.452C356.236 160.452 371.067 160.445 385.898 160.43C387.505 160.43 389.922 161.078 389.854 158.406C389.79 155.937 387.472 156.322 385.796 156.32C356.57 156.299 327.345 156.299 298.12 156.32C296.449 156.32 294.067 155.888 293.969 158.294C293.846 161.298 296.542 160.411 298.221 160.418C312.619 160.474 327.012 160.447 341.407 160.447L341.406 160.452Z" fill="#FEFEFE"/>
<path d="M230.974 394.749C230.902 395.077 230.756 395.384 230.547 395.646C230.337 395.909 230.07 396.12 229.767 396.263C229.463 396.406 229.13 396.478 228.794 396.472C228.458 396.467 228.128 396.385 227.829 396.232C217.186 392.46 206.556 388.655 195.938 384.817C194.698 384.369 193.441 383.519 194.276 381.887C195.142 380.19 196.651 380.594 198.075 381.101C207.212 384.349 216.349 387.601 225.485 390.855C226.848 391.34 228.244 391.759 229.558 392.355C230.028 392.539 230.423 392.874 230.679 393.308C230.936 393.742 231.04 394.25 230.974 394.749Z" fill="#746CFE"/>
<path d="M193.628 389.396C193.979 389.489 194.551 389.601 195.09 389.794C205.074 393.334 215.055 396.881 225.035 400.437C225.308 400.534 225.577 400.645 225.847 400.754C227.161 401.285 228.293 402.092 227.732 403.674C227.201 405.175 225.872 405.368 224.47 404.869C213.946 401.112 203.426 397.348 192.909 393.577C192.33 393.452 191.823 393.106 191.495 392.613C191.167 392.12 191.044 391.519 191.153 390.937C191.365 389.655 192.293 389.374 193.628 389.396Z" fill="#746CFE"/>
<path d="M191.204 398.187L200.905 401.638C207.874 404.121 214.843 406.605 221.813 409.09C223.338 409.634 225.154 410.163 224.495 412.296C223.795 414.566 222.07 413.719 220.543 413.177C210.432 409.574 200.312 405.997 190.21 402.368C188.996 401.933 187.566 401.36 187.929 399.67C188.286 398.017 189.671 397.972 191.204 398.187Z" fill="#746CFE"/>
<path d="M232.041 385.615C229.818 384.766 227.25 383.855 224.748 382.792C224.509 382.702 224.291 382.562 224.11 382.383C223.929 382.203 223.788 381.987 223.696 381.748C223.604 381.51 223.564 381.255 223.578 381.001C223.592 380.746 223.66 380.497 223.778 380.27C223.948 379.784 224.305 379.384 224.77 379.16C225.235 378.936 225.77 378.906 226.257 379.076C228.714 379.846 231.147 380.715 233.532 381.686C233.776 381.765 234.001 381.892 234.195 382.06C234.388 382.227 234.546 382.432 234.658 382.662C234.771 382.892 234.836 383.142 234.849 383.397C234.863 383.653 234.825 383.908 234.738 384.148C234.379 385.217 233.536 385.683 232.041 385.615Z" fill="#746CFE"/>
<path d="M27.6394 50.1433C28.4141 50.5415 29.3469 50.9223 30.1907 51.4492C38.9036 56.9044 47.6193 62.3559 56.2897 67.8788C57.6464 68.7429 59.9559 69.6121 58.7493 71.7279C57.3421 74.186 55.4871 72.3915 53.9656 71.4385C45.1317 65.8992 36.3098 60.3417 27.4999 54.7662C26.3823 54.0627 25.1439 53.3978 25.5545 51.7759C25.7777 50.872 26.5351 50.3915 27.6394 50.1433Z" fill="#746CFE"/>
<path d="M37.8633 34.6935C38.4945 35.0399 39.2758 35.4183 40.008 35.8775C48.7475 41.3619 57.4937 46.8356 66.1974 52.3771C67.5634 53.2465 69.8941 54.0708 68.564 56.2462C67.3056 58.3009 65.5077 56.9644 64.0261 56.0353C55.1674 50.4606 46.3163 44.8769 37.4726 39.2846C36.3976 38.605 35.0011 38.0303 35.4263 36.3513C35.5521 35.821 35.8719 35.357 36.3228 35.0502C36.7738 34.7435 37.3232 34.6162 37.8633 34.6935Z" fill="#746CFE"/>
<path d="M32.7579 42.3972C33.3466 42.7091 34.1332 43.0608 34.8561 43.52C43.6962 49.0717 52.5323 54.6316 61.3644 60.2001C62.8553 61.1398 64.7874 62.1366 63.4772 64.182C62.3105 66.0071 60.607 64.7608 59.2822 63.9312C50.435 58.3884 41.6024 52.8216 32.7845 47.231C31.5779 46.4678 30.1269 45.771 30.5973 43.9128C30.8365 42.9731 31.578 42.5326 32.7579 42.3972Z" fill="#746CFE"/>
<path d="M52.0748 31.1722C51.5141 32.5858 50.6317 33.7192 49.1249 32.9175C46.7174 31.5895 44.3854 30.1296 42.1394 28.5442C41.7636 28.3054 41.4947 27.9309 41.3887 27.4988C41.2828 27.0667 41.3479 26.6105 41.5706 26.2253C42.0118 25.4024 42.7466 24.6552 43.6316 25.003C46.6035 26.1457 49.3252 27.8534 51.6456 30.0319C51.9207 30.292 51.9486 30.8112 52.0748 31.1722Z" fill="#746CFE"/>
<path d="M365.386 192.705C387.348 192.705 409.311 192.705 431.274 192.705C432.437 192.673 433.6 192.701 434.76 192.789C435.034 192.783 435.307 192.832 435.563 192.932C435.819 193.032 436.053 193.181 436.251 193.371C436.449 193.561 436.608 193.789 436.718 194.04C436.828 194.291 436.888 194.562 436.893 194.836C436.899 195.11 436.85 195.383 436.75 195.639C436.65 195.894 436.5 196.128 436.31 196.326C436.12 196.524 435.892 196.682 435.641 196.792C435.389 196.902 435.118 196.962 434.843 196.967C433.83 197.053 432.812 197.084 431.795 197.059C387.578 197.059 343.362 197.059 299.146 197.059C298.129 197.089 297.111 197.062 296.096 196.978C294.798 196.829 293.896 196.131 293.988 194.711C294.014 194.193 294.239 193.705 294.616 193.348C294.993 192.992 295.494 192.795 296.013 192.798C297.166 192.684 298.335 192.705 299.498 192.705C321.462 192.703 343.425 192.703 365.386 192.705Z" fill="#F1F1F1"/>
<path d="M364.978 178.745C343.16 178.745 321.342 178.745 299.526 178.745C298.363 178.745 297.194 178.765 296.039 178.658C295.494 178.641 294.976 178.411 294.598 178.018C294.219 177.626 294.009 177.1 294.013 176.555C294.017 176.01 294.234 175.488 294.618 175.1C295.002 174.713 295.523 174.49 296.069 174.481C297.228 174.387 298.391 174.357 299.554 174.392C343.479 174.392 387.404 174.392 431.33 174.392C432.057 174.392 432.792 174.392 433.512 174.392C435.014 174.405 436.701 174.458 436.827 176.372C436.974 178.629 435.146 178.737 433.484 178.74C423.74 178.751 413.995 178.753 404.25 178.748L364.978 178.745Z" fill="#F1F1F1"/>
<path d="M365.325 211.023H431.187C432.203 211.023 433.222 211.014 434.243 211.04C435.306 211.069 436.409 211.305 436.653 212.468C436.736 213.056 436.585 213.653 436.234 214.132C435.882 214.61 435.357 214.933 434.77 215.03C433.505 215.332 432.201 215.446 430.902 215.37C386.995 215.384 343.087 215.387 299.179 215.379C298.162 215.407 297.144 215.381 296.13 215.302C294.831 215.169 293.917 214.48 293.988 213.062C294.004 212.543 294.221 212.052 294.593 211.69C294.964 211.329 295.462 211.125 295.981 211.122C297.14 211.03 298.303 210.997 299.465 211.026C321.417 211.021 343.37 211.02 365.325 211.023Z" fill="#F1F1F1"/>
<path d="M341.407 160.447C327.012 160.447 312.619 160.474 298.221 160.413C296.54 160.413 293.844 161.293 293.969 158.289C294.067 155.883 296.449 156.317 298.12 156.315C327.346 156.294 356.571 156.294 385.796 156.315C387.472 156.315 389.79 155.932 389.854 158.401C389.922 161.072 387.505 160.419 385.898 160.425C371.068 160.467 356.238 160.475 341.407 160.447Z" fill="#746CFE"/>
<path d="M331.534 65.2242L364.489 80.5838L390.117 55.3501" stroke="#746CFE" stroke-width="2.633" stroke-miterlimit="10" stroke-linecap="round"/>
</svg>
