<svg width="649" height="520" viewBox="0 0 649 520" fill="none" xmlns="http://www.w3.org/2000/svg">
<path d="M637.489 0.0847168H247.616C241.433 0.0847168 236.42 5.0919 236.42 11.2686V238.702C236.42 244.879 241.433 249.886 247.616 249.886H637.489C643.672 249.886 648.685 244.879 648.685 238.702V11.2686C648.685 5.0919 643.672 0.0847168 637.489 0.0847168Z" fill="#E5E5E5"/>
<path d="M252.669 20.2597C256.206 20.2597 259.073 17.3954 259.073 13.8621C259.073 10.3288 256.206 7.46448 252.669 7.46448C249.131 7.46448 246.264 10.3288 246.264 13.8621C246.264 17.3954 249.131 20.2597 252.669 20.2597Z" fill="#4A485F"/>
<path d="M297.937 20.2597C301.474 20.2597 304.341 17.3954 304.341 13.8621C304.341 10.3288 301.474 7.46448 297.937 7.46448C294.399 7.46448 291.532 10.3288 291.532 13.8621C291.532 17.3954 294.399 20.2597 297.937 20.2597Z" fill="#4A485F"/>
<path d="M275.302 20.2597C278.839 20.2597 281.707 17.3954 281.707 13.8621C281.707 10.3288 278.839 7.46448 275.302 7.46448C271.765 7.46448 268.897 10.3288 268.897 13.8621C268.897 17.3954 271.765 20.2597 275.302 20.2597Z" fill="#4A485F"/>
<path d="M407.396 43.7664H291.399C277.94 43.7664 267.029 54.665 267.029 68.1091V242.742C267.029 256.186 277.94 267.085 291.399 267.085H407.396C420.855 267.085 431.766 256.186 431.766 242.742V68.1091C431.766 54.665 420.855 43.7664 407.396 43.7664Z" fill="white" stroke="#3759C1" stroke-width="0.726" stroke-miterlimit="10"/>
<path d="M594.693 64.2041H478.696C465.237 64.2041 454.326 75.1027 454.326 88.5468V263.18C454.326 276.624 465.237 287.523 478.696 287.523H594.693C608.152 287.523 619.063 276.624 619.063 263.18V88.5468C619.063 75.1027 608.152 64.2041 594.693 64.2041Z" fill="white" stroke="#3759C1" stroke-width="0.726" stroke-miterlimit="10"/>
<path d="M470.159 207.801H601.993" stroke="#3759C1" stroke-width="2.177" stroke-miterlimit="10"/>
<path d="M470.159 218.997H601.993" stroke="#3759C1" stroke-width="2.177" stroke-miterlimit="10"/>
<path d="M470.641 229.987H534.691" stroke="#0847C4" stroke-width="2.177" stroke-miterlimit="10"/>
<path d="M537.463 229.987H601.513" stroke="#0847C4" stroke-width="2.177" stroke-miterlimit="10"/>
<path d="M470.641 229.987H534.691" stroke="#3759C1" stroke-width="2.177" stroke-miterlimit="10"/>
<path d="M537.463 229.987H601.513" stroke="#3759C1" stroke-width="2.177" stroke-miterlimit="10"/>
<path d="M470.159 239.898H601.993" stroke="#3759C1" stroke-width="2.177" stroke-miterlimit="10"/>
<path d="M470.159 251.093H601.993" stroke="#3759C1" stroke-width="2.177" stroke-miterlimit="10"/>
<path d="M470.641 262.085H534.691" stroke="#0847C4" stroke-width="2.177" stroke-miterlimit="10"/>
<path d="M537.463 262.085H601.513" stroke="#0847C4" stroke-width="2.177" stroke-miterlimit="10"/>
<path d="M470.641 262.085H534.691" stroke="#3759C1" stroke-width="2.177" stroke-miterlimit="10"/>
<path d="M537.463 262.085H601.513" stroke="#3759C1" stroke-width="2.177" stroke-miterlimit="10"/>
<path d="M594.644 144.06H544.232C541.402 144.06 539.108 146.351 539.108 149.177C539.108 152.004 541.402 154.295 544.232 154.295H594.644C597.474 154.295 599.768 152.004 599.768 149.177C599.768 146.351 597.474 144.06 594.644 144.06Z" fill="#746CFE"/>
<path d="M594.644 157.067H544.232C541.402 157.067 539.108 159.358 539.108 162.185C539.108 165.011 541.402 167.302 544.232 167.302H594.644C597.474 167.302 599.768 165.011 599.768 162.185C599.768 159.358 597.474 157.067 594.644 157.067Z" fill="#3759C1"/>
<path d="M594.644 170.075H544.232C541.402 170.075 539.108 172.366 539.108 175.192C539.108 178.019 541.402 180.31 544.232 180.31H594.644C597.474 180.31 599.768 178.019 599.768 175.192C599.768 172.366 597.474 170.075 594.644 170.075Z" fill="#746CFE"/>
<path d="M563.859 78.5657H508.295C505.833 78.5657 503.836 80.5597 503.836 83.0194C503.836 85.4792 505.833 87.4732 508.295 87.4732H563.859C566.322 87.4732 568.319 85.4792 568.319 83.0194C568.319 80.5597 566.322 78.5657 563.859 78.5657Z" fill="#3759C1"/>
<path d="M582.089 97.0481H490.063C485.858 97.0481 482.449 100.453 482.449 104.654V121.697C482.449 125.898 485.858 129.303 490.063 129.303H582.089C586.294 129.303 589.703 125.898 589.703 121.697V104.654C589.703 100.453 586.294 97.0481 582.089 97.0481Z" fill="#3759C1"/>
<path d="M284.12 188.492H415.954" stroke="#3759C1" stroke-width="2.177" stroke-miterlimit="10"/>
<path d="M284.12 199.688H415.954" stroke="#3759C1" stroke-width="2.177" stroke-miterlimit="10"/>
<path d="M284.602 210.678H348.652" stroke="#0847C4" stroke-width="2.177" stroke-miterlimit="10"/>
<path d="M351.422 210.678H415.472" stroke="#0847C4" stroke-width="2.177" stroke-miterlimit="10"/>
<path d="M284.602 210.678H348.652" stroke="#3759C1" stroke-width="2.177" stroke-miterlimit="10"/>
<path d="M351.422 210.678H415.472" stroke="#3759C1" stroke-width="2.177" stroke-miterlimit="10"/>
<path d="M284.12 220.589H415.954" stroke="#3759C1" stroke-width="2.177" stroke-miterlimit="10"/>
<path d="M284.12 231.785H415.954" stroke="#3759C1" stroke-width="2.177" stroke-miterlimit="10"/>
<path d="M284.602 242.775H348.652" stroke="#0847C4" stroke-width="2.177" stroke-miterlimit="10"/>
<path d="M351.422 242.775H415.472" stroke="#0847C4" stroke-width="2.177" stroke-miterlimit="10"/>
<path d="M284.602 242.775H348.652" stroke="#3759C1" stroke-width="2.177" stroke-miterlimit="10"/>
<path d="M351.422 242.775H415.472" stroke="#3759C1" stroke-width="2.177" stroke-miterlimit="10"/>
<path d="M308.811 146.134L316.6 123.503C312.058 121.992 307.144 122.015 302.617 123.569C298.09 125.123 294.2 128.122 291.548 132.102C288.895 136.083 287.627 140.824 287.938 145.596C288.25 150.367 290.124 154.904 293.273 158.506C296.421 162.108 300.667 164.576 305.358 165.53C310.05 166.483 314.924 165.868 319.231 163.78C323.538 161.693 327.038 158.248 329.191 153.978C331.344 149.707 332.031 144.848 331.146 140.148L308.811 146.134Z" fill="#746CFE"/>
<path d="M330.88 138.78C330.233 135.344 328.678 132.144 326.376 129.51C324.075 126.876 321.111 124.905 317.79 123.8L310.782 144.166L330.88 138.78Z" fill="#3759C1"/>
<path d="M408.603 124.75H358.191C355.361 124.75 353.067 127.041 353.067 129.868C353.067 132.694 355.361 134.985 358.191 134.985H408.603C411.433 134.985 413.727 132.694 413.727 129.868C413.727 127.041 411.433 124.75 408.603 124.75Z" fill="#2CFAFF"/>
<path d="M408.603 137.759H358.191C355.361 137.759 353.067 140.05 353.067 142.877C353.067 145.703 355.361 147.994 358.191 147.994H408.603C411.433 147.994 413.727 145.703 413.727 142.877C413.727 140.05 411.433 137.759 408.603 137.759Z" fill="#0847C4"/>
<path d="M408.603 150.766H358.191C355.361 150.766 353.067 153.057 353.067 155.883C353.067 158.709 355.361 161 358.191 161H408.603C411.433 161 413.727 158.709 413.727 155.883C413.727 153.057 411.433 150.766 408.603 150.766Z" fill="#2CFAFF"/>
<path d="M377.819 59.2571H322.255C319.792 59.2571 317.796 61.2511 317.796 63.7108C317.796 66.1706 319.792 68.1646 322.255 68.1646H377.819C380.282 68.1646 382.279 66.1706 382.279 63.7108C382.279 61.2511 380.282 59.2571 377.819 59.2571Z" fill="#3759C1"/>
<path d="M396.05 77.7399H304.024C299.819 77.7399 296.41 81.1449 296.41 85.3453V102.389C296.41 106.59 299.819 109.995 304.024 109.995H396.05C400.255 109.995 403.664 106.59 403.664 102.389V85.3453C403.664 81.1449 400.255 77.7399 396.05 77.7399Z" fill="#3759C1"/>
<path d="M470.777 110.352H354.78C341.321 110.352 330.41 121.25 330.41 134.694V309.328C330.41 322.772 341.321 333.67 354.78 333.67H470.777C484.236 333.67 495.147 322.772 495.147 309.328V134.694C495.147 121.25 484.236 110.352 470.777 110.352Z" fill="white" stroke="#3759C1" stroke-width="0.726" stroke-miterlimit="10"/>
<path d="M346.861 254.729H478.695" stroke="#3759C1" stroke-width="2.177" stroke-miterlimit="10"/>
<path d="M346.861 265.925H478.695" stroke="#3759C1" stroke-width="2.177" stroke-miterlimit="10"/>
<path d="M347.343 276.915H411.392" stroke="#3759C1" stroke-width="2.177" stroke-miterlimit="10"/>
<path d="M415.079 276.915H478.214" stroke="#3759C1" stroke-width="2.177" stroke-miterlimit="10"/>
<path d="M346.861 286.827H478.695" stroke="#3759C1" stroke-width="2.177" stroke-miterlimit="10"/>
<path d="M346.861 298.023H478.695" stroke="#3759C1" stroke-width="2.177" stroke-miterlimit="10"/>
<path d="M347.343 309.013H411.392" stroke="#3759C1" stroke-width="2.177" stroke-miterlimit="10"/>
<path d="M416.882 309.013H478.214" stroke="#3759C1" stroke-width="2.177" stroke-miterlimit="10"/>
<path d="M371.552 212.371L379.34 189.739C374.798 188.228 369.885 188.252 365.358 189.806C360.831 191.361 356.941 194.359 354.289 198.34C351.637 202.321 350.369 207.062 350.681 211.834C350.993 216.605 352.867 221.142 356.015 224.744C359.164 228.346 363.41 230.814 368.102 231.767C372.793 232.72 377.667 232.105 381.974 230.017C386.281 227.93 389.78 224.485 391.933 220.214C394.086 215.943 394.773 211.084 393.888 206.384L371.552 212.371Z" fill="#3759C1"/>
<path d="M393.625 205.016C392.977 201.581 391.422 198.38 389.12 195.747C386.818 193.113 383.854 191.142 380.534 190.036L373.526 210.402L393.625 205.016Z" fill="#746CFE"/>
<path d="M471.345 190.988H420.933C418.103 190.988 415.809 193.279 415.809 196.105C415.809 198.932 418.103 201.223 420.933 201.223H471.345C474.175 201.223 476.469 198.932 476.469 196.105C476.469 193.279 474.175 190.988 471.345 190.988Z" fill="#746CFE"/>
<path d="M471.345 203.996H420.933C418.103 203.996 415.809 206.287 415.809 209.113C415.809 211.939 418.103 214.23 420.933 214.23H471.345C474.175 214.23 476.469 211.939 476.469 209.113C476.469 206.287 474.175 203.996 471.345 203.996Z" fill="#3759C1"/>
<path d="M471.345 217.003H420.933C418.103 217.003 415.809 219.294 415.809 222.12C415.809 224.947 418.103 227.238 420.933 227.238H471.345C474.175 227.238 476.469 224.947 476.469 222.12C476.469 219.294 474.175 217.003 471.345 217.003Z" fill="#746CFE"/>
<path d="M440.561 125.495H384.997C382.534 125.495 380.538 127.489 380.538 129.949C380.538 132.408 382.534 134.402 384.997 134.402H440.561C443.024 134.402 445.021 132.408 445.021 129.949C445.021 127.489 443.024 125.495 440.561 125.495Z" fill="#3759C1"/>
<path d="M458.791 143.976H366.765C362.559 143.976 359.151 147.381 359.151 151.582V168.626C359.151 172.826 362.559 176.231 366.765 176.231H458.791C462.996 176.231 466.405 172.826 466.405 168.626V151.582C466.405 147.381 462.996 143.976 458.791 143.976Z" fill="#3759C1"/>
<path d="M523.116 144.239H514.071V183.992H523.116V144.239Z" fill="#746CFE"/>
<path d="M510.301 153.111H501.256V183.992H510.301V153.111Z" fill="#746CFE"/>
<path d="M124.808 458.372C121.009 457.956 123.224 455.611 123.626 454.173C128.941 435.073 134.316 415.987 139.751 396.916C141.491 390.76 143.001 384.526 145.066 378.479C148.272 369.08 148.929 359.61 148.405 349.691C147.103 325.044 146.613 300.356 145.678 275.69C145.522 271.527 147.852 268.015 148.122 264.016C150.789 256.737 153.044 249.314 154.876 241.781L155.381 240.927L155.694 239.732L155.671 239.761C164.76 235.012 173.889 233.872 182.836 239.94C185.697 241.992 188.392 244.267 190.895 246.743C195.75 251.408 201.318 255.27 207.389 258.185C219.101 263.692 231.164 263.858 243.472 260.718C245.784 268.878 247.107 277.285 247.413 285.76C248.702 342.701 250.282 399.643 251.805 456.577C251.875 459.232 252.336 461.897 248.273 461.409H235.649C232.791 461.494 231.342 460.726 230.722 457.305C220.583 401.393 210.31 345.505 199.903 289.641C199.757 288.845 199.94 287.64 198.413 287.796C195.667 306.996 193.149 326.211 190.079 345.339C188.672 354.11 188.651 363.136 184.606 371.493C171.365 398.85 158.322 426.302 145.475 453.848C143.869 457.282 142.052 458.973 138.318 458.361C133.835 457.762 129.291 457.766 124.808 458.372V458.372Z" fill="#302F42"/>
<path d="M243.47 260.72C231.163 263.861 219.1 263.695 207.388 258.188C201.316 255.273 195.748 251.411 190.894 246.746C188.391 244.27 185.696 241.995 182.834 239.943C173.888 233.875 164.763 235.015 155.67 239.764C155.372 238.188 155.484 236.562 155.994 235.041C160.416 215.084 164.735 195.101 169.378 175.193C169.868 173.433 169.961 171.585 169.65 169.785C169.34 167.984 168.633 166.274 167.581 164.779C167.117 165.108 166.632 165.29 166.4 165.64C160.287 174.839 154.228 184.069 148.097 193.248C147.606 194.066 147.294 194.977 147.179 195.923C147.065 196.869 147.151 197.829 147.432 198.739C149.642 210.348 151.754 221.975 153.944 233.588C154.209 234.995 154.88 236.375 153.477 237.547C149.694 239.319 146.169 241.597 143 244.316C141.029 244.993 140.585 243.763 140.084 242.219C134.893 226.248 129.693 210.279 124.351 194.36C123.515 191.867 124.624 189.986 125.372 187.946C132.091 169.629 139.135 151.421 144.762 132.721C145.348 131.061 145.779 129.351 146.048 127.612C146.615 122.17 149.625 119.046 154.698 117.288C162.304 114.653 168.934 110.019 176.054 106.379C176.827 105.951 177.485 105.344 177.974 104.608C178.462 103.873 178.766 103.031 178.86 102.153C182.246 101.582 185.097 103.365 188.051 104.432C191.959 105.843 195.695 106.975 199.44 104.197C200.655 103.296 201.559 103.543 201.909 105.003C202.963 109.383 205.387 107.45 207.635 106.277C210.848 104.602 212.904 101.693 215.244 99.087C216.743 101.929 219.279 104.085 222.326 105.11C228.45 107.482 234.419 110.252 240.446 112.872C244.544 114.655 247.07 117.349 247.58 122.191C250.718 151.955 256.944 181.349 258.061 211.368C258.483 222.727 259.655 234.064 260.472 245.405C260.551 246.493 260.858 247.661 259.828 248.543L248.036 250.613C245.468 250.026 245.876 247.64 245.466 245.968C240.55 225.94 235.766 205.883 230.925 185.841C230.554 184.303 230.111 182.788 229.59 180.842C227.995 185.135 229.553 188.806 230.351 192.457C234.896 213.223 239.613 233.953 244.103 254.73C244.504 256.597 246.345 259.032 243.47 260.72Z" fill="#746CFE"/>
<path d="M215.242 99.0935C212.902 101.699 210.847 104.608 207.634 106.283C205.385 107.457 202.962 109.393 201.908 105.009C201.557 103.549 200.653 103.303 199.439 104.204C195.693 106.982 191.958 105.85 188.05 104.439C185.096 103.377 182.244 101.589 178.858 102.16C177.062 100.946 173.976 104.018 172.826 100.235C172.521 99.237 172.253 100.438 172.071 100.734C170.609 103.123 168.54 101.961 168.011 100.576C166.035 95.4078 160.955 91.1722 161.576 85.417C162.541 76.4511 161.31 67.2555 163.516 58.5418C166.616 46.3107 173.523 37.1948 187.101 35.0486C194.059 33.9496 200.483 35.9937 206.692 38.5169C209.514 39.665 212.894 40.2649 214.849 43.1916C215.634 44.3649 216.871 43.5898 217.948 43.5088C223.13 43.1279 225.949 45.0632 226.746 50.156C227.349 53.9533 227.571 57.8012 227.41 61.6426C227.253 65.1121 223.791 65.7214 221.373 67.1323C216.145 65.7479 216.612 71.0186 214.547 73.1888C210.808 77.1176 211.168 78.9705 215.319 82.963C219.469 85.7092 218.866 89.5159 217.564 93.4009C216.91 95.3415 216.022 97.1994 215.242 99.0935Z" fill="#302F42"/>
<path d="M128.861 514.907C128.484 512.612 127.601 510.429 126.276 508.516C124.951 506.604 123.217 505.009 121.199 503.848C120.664 505.903 120.264 507.992 120.003 510.1C119.809 513.496 118.342 513.695 115.117 513.695C109.341 513.695 109.639 510.975 110.606 506.936C111.928 502.175 112.673 497.274 112.825 492.336C112.825 490.337 113.063 487.51 114.341 486.479C119.641 482.198 119.589 475.739 121.744 470.207C121.859 469.756 122.127 469.358 122.501 469.081C122.876 468.804 123.335 468.664 123.801 468.686C127.504 469.482 131.027 471.188 134.944 470.929C136.793 472.053 136.524 473.819 136.329 475.549C135.769 478.522 135.444 481.533 135.358 484.557C135.851 494.86 136.334 505.274 147.353 510.874C149.367 511.898 151.286 513.214 150.527 516.051C143.257 516.498 136.011 516.614 128.861 514.907Z" fill="#302F42"/>
<path d="M247.324 472.509C249.26 476.905 247.952 481.535 248.254 486.048C248.74 493.3 252.554 499.344 255.74 505.449C256.954 507.77 261.062 508.634 263.915 510.03C266.041 511.07 267.963 512.11 267.361 514.981C266.841 515.467 266.219 515.831 265.54 516.045C264.861 516.259 264.143 516.319 263.438 516.218C257.537 516.128 251.633 516.099 245.731 516.047C245.066 513.848 243.925 511.823 242.388 510.115C240.851 508.406 238.956 507.058 236.838 506.164L236.062 516.169L226.471 516.048C226.794 509.235 227.782 502.453 227.05 495.595C226.77 493.693 226.963 491.752 227.613 489.943C228.264 488.134 229.351 486.513 230.779 485.224C231.665 484.412 233.304 483.475 232.558 482.18C230.596 478.759 233.415 475.757 233.022 472.519C232.756 470.295 234.741 471.325 235.68 470.835C239.453 472.198 243.456 471.913 247.324 472.509Z" fill="#302F42"/>
<path d="M245.737 516.042C251.64 516.093 257.544 516.123 263.445 516.213C264.15 516.313 264.868 516.254 265.547 516.04C266.226 515.826 266.848 515.462 267.367 514.976C268.837 516.867 270.929 516.09 272.748 516.094C296.674 516.145 320.601 516.157 344.527 516.129C345.811 516.129 347.097 516.129 348.381 516.17C349.211 516.2 350.079 516.419 350.161 517.392C350.273 518.708 349.231 518.889 348.24 518.938C347.118 518.995 345.993 518.976 344.869 518.976H6.20705C5.72655 519.014 5.2437 519.009 4.76397 518.963C3.33152 518.707 0.830712 519.759 0.853301 517.534C0.874562 515.349 3.37005 516.169 4.80782 516.164C25.8428 516.075 46.8782 516.031 67.914 516.031L81.4439 515.994C95.9615 516.037 110.479 516.077 124.995 516.112C126.385 516.112 127.932 516.444 128.861 514.903C136.011 516.61 143.257 516.496 150.52 516.044H226.478L236.069 516.165L245.737 516.042Z" fill="#D3D3D3"/>
<path d="M248.035 250.614L259.827 248.544C259.51 251.569 259.908 254.625 260.989 257.469C262.252 260.96 262.152 264.798 260.71 268.22C260.377 269.378 259.703 270.408 258.775 271.177C257.847 271.947 256.708 272.419 255.508 272.532C254.302 272.651 253.088 272.395 252.033 271.799C250.978 271.203 250.133 270.296 249.613 269.202C247.697 265.974 246.545 262.414 247.58 258.674C248.221 256.037 248.375 253.306 248.035 250.614V250.614Z" fill="#E0BFAD"/>
<path d="M142.998 244.323C146.167 241.603 149.692 239.326 153.476 237.554C153.913 238.974 153.302 240.739 154.875 241.783C153.043 249.316 150.788 256.74 148.121 264.02C144.82 257.864 146.266 250.482 142.998 244.323Z" fill="#E0BFAD"/>
<path d="M134.938 470.929C131.02 471.195 127.496 469.485 123.794 468.686C124.694 465.327 125.037 461.842 124.81 458.372C129.289 457.766 133.83 457.763 138.31 458.361C138.043 462.78 137.687 467.174 134.938 470.929Z" fill="#E0BFAD"/>
<path d="M247.324 472.509C243.45 471.913 239.448 472.198 235.686 470.83C235.669 467.691 235.652 464.552 235.636 461.413H248.259C247.954 465.114 247.642 468.813 247.324 472.509Z" fill="#E0BFAD"/>
<path d="M215.316 82.9656C211.164 78.973 210.798 77.1254 214.544 73.1913C216.608 71.0211 216.138 65.7504 221.37 67.1348C221.922 73.3917 218.713 78.2151 215.316 82.9656Z" fill="#E0BFAD"/>
<path d="M155.379 240.925C154.957 240.394 154.888 239.948 155.691 239.731L155.379 240.925Z" fill="#56BBD1"/>
</svg>
